<?xml version="1.0" encoding="UTF-8"?>
<svg id="_レイヤー_2" data-name="レイヤー 2" xmlns="http://www.w3.org/2000/svg" xmlns:xlink="http://www.w3.org/1999/xlink" viewBox="0 0 492.69 752.34">
  <defs>
    <style>
      .cls-1 {
        fill: #e26917;
      }

      .cls-1, .cls-2, .cls-3, .cls-4, .cls-5, .cls-6, .cls-7, .cls-8, .cls-9, .cls-10, .cls-11, .cls-12, .cls-13, .cls-14, .cls-15, .cls-16, .cls-17, .cls-18, .cls-19, .cls-20, .cls-21, .cls-22, .cls-23, .cls-24, .cls-25, .cls-26, .cls-27, .cls-28, .cls-29, .cls-30 {
        stroke-width: 0px;
      }

      .cls-2 {
        fill: #d8a577;
      }

      .cls-3 {
        fill: #16491a;
      }

      .cls-4 {
        fill: #ffec64;
      }

      .cls-5 {
        fill: #ffe14d;
      }

      .cls-31 {
        clip-path: url(#clippath-2);
      }

      .cls-6 {
        fill: #ff9739;
      }

      .cls-7 {
        fill: #fff3e6;
      }

      .cls-8 {
        fill: #1b6824;
      }

      .cls-9 {
        fill: none;
      }

      .cls-10 {
        fill: #fff578;
      }

      .cls-11 {
        fill: #e9e9e9;
      }

      .cls-12, .cls-19 {
        fill: #791628;
      }

      .cls-13 {
        fill: #1e2672;
      }

      .cls-14 {
        fill: #8c3333;
      }

      .cls-15 {
        fill: #ddc84b;
      }

      .cls-16 {
        fill: #fff;
      }

      .cls-17 {
        fill: #3a1919;
      }

      .cls-18 {
        fill: #eadfb0;
      }

      .cls-19 {
        fill-rule: evenodd;
      }

      .cls-20 {
        fill: #9e673e;
      }

      .cls-21 {
        fill: #a31e36;
      }

      .cls-32 {
        clip-path: url(#clippath);
      }

      .cls-33 {
        clip-path: url(#clippath-3);
      }

      .cls-22 {
        fill: #2f9b37;
      }

      .cls-23 {
        fill: #605555;
      }

      .cls-24 {
        fill: #938282;
      }

      .cls-25 {
        fill: #c9be91;
      }

      .cls-26 {
        fill: #2e3499;
      }

      .cls-27 {
        fill: #c6b44b;
      }

      .cls-28 {
        fill: #f4da6e;
      }

      .cls-29 {
        fill: #cecece;
      }

      .cls-30 {
        fill: #ea911b;
      }
    </style>
    <clipPath id="clippath">
      <path class="cls-9" d="m292.27,467.72l-4.51,2.86c-2.1,1.33-4.88.7-6.2-1.4l-37.24-58.71,12.12-7.67,37.24,58.71c1.33,2.1.7,4.88-1.4,6.2Z"/>
    </clipPath>
    <clipPath id="clippath-2">
      <path class="cls-9" d="m25.56,373.62l-4.86-2.22c-2.26-1.03-3.26-3.7-2.23-5.96l24.69-54.16,13.05,5.95-24.69,54.16c-1.03,2.26-3.7,3.26-5.96,2.23Z"/>
    </clipPath>
    <clipPath id="clippath-3">
      <path class="cls-9" d="m29.86,370.55l-4.96-1.99c-2.31-.92-3.42-3.54-2.5-5.85l25.81-64.55,13.31,5.34-25.81,64.55c-.92,2.31-3.54,3.42-5.85,2.5Z"/>
    </clipPath>
  </defs>
  <g id="_レイヤー_1-2" data-name="レイヤー 1">
    <g>
      <path id="silhouette" class="cls-9" d="m367.95,617.24c22.36-15.46,50.33-50.34,56.91-128.79,4.07-48.46-1.61-103.23-14.45-139.54-3.75-10.59-8.09-20.74-13.3-30.09-20.69-37.15-43.47-52.03-43.49-52.04-1.27-.97-2.55-1.92-3.86-2.85-1.76-1.27-3.55-2.52-5.4-3.72,0,0,0,0-.01,0,0,0,0,0-.01,0-20.79-13.31-44.21-20.45-69.62-21.22h0s0,0,0,0c-2.09-.06-4.2-.1-6.28-.1-60.51,0-123.04,25.67-147.39,71.79-19.36,36.66,7.08,46.95,9.21,49.39,10.71,9.58-22.11,115.97-22.11,115.97-17.14,1.99-46.18,14.14-49.9,41.83-.05.36,1.2,5.8,1.78,8.14.03.12.05.25.09.37.17.67.34,1.34.51,2.01-6.38-4.61-13.25-7.06-19.97-7.06-7.65,0-14.71,3.28-19.36,8.99-5.36,6.59-7.18,15.69-5.13,25.63,4.87,23.56,45.04,67.51,73.31,74.3,2.36.57,4.54.85,6.48.85,4.65,0,8.08-1.63,10.19-4.85,3.69-5.64,2.53-14.91.75-21.23,62.89,59.56,167.3,42.74,167.3,42.74h.4c14.57,0,31.18-1.36,56.24-10.77,25.06-9.42,37.12-19.72,37.12-19.72Z"/>
      <g>
        <path class="cls-12" d="m183.32,424.79s-33.59,16.92-48.79,17.96c-24.7,1.7-75.64-44.49-75.64-44.49l31.16-48.11s38.69,23.08,49.94,27.98c6.27,2.73,48.3-25.8,65.82,8.63,11.28,22.16-22.49,38.03-22.49,38.03Z"/>
        <path class="cls-17" d="m133.26,446.79c-26.49,0-74.97-43.67-77.06-45.57-1.45-1.32-1.74-3.49-.67-5.14l31.17-48.11c1.17-1.81,3.56-2.36,5.41-1.26.38.23,37.86,22.56,49.16,27.6,1.37-.06,5.24-1.4,8.39-2.48,15.78-5.43,45.15-15.54,59.73,13.11,3.08,6.05,3.57,12.24,1.46,18.39-5.14,15-24.37,24.38-25.77,25.05-1.94.97-34.59,17.28-50.27,18.36-.5.04-1.02.05-1.54.05Zm-69.15-49.24c15.66,13.74,52.38,42.41,70.15,41.2,14.22-.98,46.94-17.38,47.26-17.54.03-.02.06-.03.09-.05h0c.17-.08,17.55-8.41,21.67-20.44,1.39-4.08,1.06-8.05-1.03-12.16-10.54-20.71-30.48-15.89-49.99-9.17-6.97,2.4-10.81,3.72-13.86,2.4-9.52-4.14-37.39-20.51-47.08-26.24l-27.21,42.01Z"/>
      </g>
      <path class="cls-5" d="m21.95,380.73c10.01,16.77,17.89,14.54,32.46,22.51,16.64,9.11,26.22,8.54,33.6-1.59,5.93-8.16,11.78-18.97,13.85-39.52,1.16-4.63-21.33-18.06-37.33-26.57-11.12-5.91-20.48-6.22-27.53-3.11-15.32,7.32-23.34,29.87-15.04,48.28Z"/>
      <path class="cls-30" d="m28.87,389.09c8.09,11.14,15.13,8.04,25.54,14.15,11.89,6.98,20.64,9.99,24.73,4.37,6.99-3.65,10.73-8.63,16.37-21.39.39-2.75-30.51-14.82-41.92-21.38-7.93-4.56-14.21-5.52-18.67-4.2-9.64,3.23-13.13,16.43-6.05,28.45Z"/>
      <path class="cls-17" d="m73.72,413.73c-7.03,0-14.37-3.23-21.23-6.98-4.06-2.22-7.53-3.59-10.88-4.91-8.22-3.24-15.32-6.04-23.09-19.05-.08-.13-.15-.27-.21-.41-8.97-19.91-1.04-44.92,16.97-53.53.04-.02.08-.04.11-.05,6.22-2.74,16.65-4.4,31.02,3.24,40.24,21.39,40.11,27.76,39.4,30.78-2.23,21.72-8.61,33.01-14.56,41.19-5.19,7.13-11.23,9.73-17.52,9.73Zm-48.21-34.85c6.31,10.49,11.38,12.49,19.04,15.51,3.42,1.35,7.29,2.88,11.79,5.34,16.75,9.16,23.3,6.63,28.44-.44,5.32-7.31,11.02-17.44,13.06-37.21-1.92-3.13-14.58-12.03-35.19-22.99-9.1-4.84-17.39-5.88-23.98-3.01-13.9,6.69-20.13,27.02-13.16,42.8Zm72.46-17.73s0,0,0,0c0,0,0,0,0,0Z"/>
      <g>
        <rect class="cls-21" x="53.82" y="340.61" width="50.78" height="81.31" transform="translate(219.06 17.84) rotate(32.78)"/>
        <path class="cls-12" d="m79.88,333.34l-13.34,20.71c.25,4.2,1.62,8.44,4.83,12.3,7.95,9.57,21.85,18.69,31.86,24.52l19.35-30.04-42.69-27.49Z"/>
        <rect class="cls-4" x="70.33" y="340.61" width="17.77" height="81.31" transform="translate(219.06 17.84) rotate(32.78)"/>
        <g>
          <polygon class="cls-4" points="93.76 342.28 75.44 370.72 49.73 410.64 64.67 420.26 89.31 382 108.7 351.9 93.76 342.28"/>
          <path class="cls-15" d="m93.76,342.28l-18.32,28.45c4.08,4,8.95,7.83,13.87,11.28l19.39-30.11-14.94-9.62Z"/>
        </g>
        <path class="cls-17" d="m78.54,433.2c-.74,0-1.49-.21-2.16-.64l-42.69-27.49c-.89-.58-1.52-1.48-1.74-2.52-.22-1.04-.03-2.12.55-3.01l44.03-68.36c.58-.89,1.48-1.52,2.52-1.74,1.04-.22,2.12-.03,3.01.55l42.69,27.5c1.86,1.2,2.39,3.67,1.2,5.53l-44.03,68.36c-.76,1.19-2.05,1.83-3.37,1.83Zm-37.16-32.69l35.96,23.16,39.7-61.64-35.96-23.16-39.7,61.64Z"/>
      </g>
      <path class="cls-6" d="m138.75,294.24l-12.06,13.03c-18.67,12.98-40.33,24.46-50.38,26.7-1.6.35-2.96,1-4.05,1.91-2.23,1.85-3.22,4.81-2.54,7.59.31,1.28.96,2.45,1.87,3.4,1.08,1.2,2.14,2.11,3.41,2.97,9.74,6.57,29.45,6.76,55.18-.11l6.85-1.83c-4.43-15.91-10.21-32.95,1.73-53.66Z"/>
      <path class="cls-1" d="m135.27,295.92l-12.06,13.03c-9.05,6.29-19.06,12.51-27.86,17.22,1.76,19.44-8.07,28.26-8.07,28.26,8.58-.37,28.22-.04,39.4-3.03l6.85-1.83c-4.43-15.91-10.21-32.95,1.73-53.66Z"/>
      <path class="cls-17" d="m96.68,358.83c-10.18,0-18.33-1.89-23.94-5.68-1.54-1.05-2.85-2.18-4.11-3.57-1.37-1.44-2.34-3.23-2.81-5.16-1.04-4.26.48-8.82,3.87-11.63,1.58-1.32,3.51-2.24,5.74-2.74,9.39-2.09,30.68-13.41,48.61-25.83l11.77-12.71c1.38-1.5,3.67-1.71,5.31-.5,1.64,1.21,2.11,3.46,1.09,5.22-10.48,18.16-6.19,33.37-2.05,48.07l.71,2.52c.29,1.03.15,2.13-.38,3.06-.53.93-1.41,1.6-2.44,1.88l-6.85,1.83c-13.08,3.49-24.73,5.24-34.51,5.24Zm31.68-47.86c-19.2,13.28-40.64,24.55-51.2,26.9-.96.21-1.76.58-2.36,1.08-1.06.88-1.53,2.27-1.22,3.57.15.59.45,1.14.87,1.58.03.03.06.06.08.09.85.94,1.65,1.64,2.68,2.33,8.77,5.92,28.18,5.67,51.9-.66l2.94-.78c-2.9-10.32-5.82-21.56-3.7-34.11Z"/>
      <path class="cls-6" d="m368.51,601.89c-12.74,8.77-25.19,15.08-36.99,19.63l-.76,1.39c-26.78,49-84.91,86.67-135.21,87.62-25.07.45-44.5-8.97-54.87-26.42-13.76-23.13-35.28-31.54-49.43-27.9-10.35,2.67-16.51,11.39-16.92,23.93-.35,10.82,8.24,24.2,23.55,36.72,20.89,17.08,53.81,31.47,87.32,31.47,8.29,0,16.63-.88,24.82-2.82,69.54-16.47,133.22-70.69,154.85-131.86l3.76-11.86s-.09.06-.13.09Z"/>
      <path class="cls-1" d="m360.62,607.03c-24.9,56.7-85.15,105.65-150.6,121.15-8.19,1.94-16.53,2.82-24.82,2.82-33.51,0-66.43-14.39-87.32-31.47-11.47-9.38-19.16-19.24-22.16-28.14-.82,2.65-1.29,5.58-1.39,8.76-.35,10.82,8.24,24.2,23.55,36.72,20.89,17.08,53.81,31.47,87.32,31.47,8.29,0,16.63-.88,24.82-2.82,69.54-16.47,133.21-70.69,154.85-131.86l3.76-11.86s-.09.06-.13.09c-2.64,1.82-5.27,3.53-7.88,5.14Z"/>
      <path class="cls-17" d="m185.2,752.34c-37.05,0-70.71-16.72-89.85-32.37-16.29-13.32-25.41-27.88-25.02-39.95.46-14.24,7.9-24.58,19.92-27.68,15.6-4.01,39.11,4.92,53.87,29.73,9.63,16.21,27.9,24.89,51.36,24.47,48.97-.93,105.62-37.71,131.77-85.54l.76-1.39c.45-.83,1.19-1.47,2.07-1.81,12.51-4.83,24.67-11.29,36.16-19.19.03-.02.09-.07.1-.07,1.4-.99,3.28-.97,4.67.04,1.39,1.01,1.97,2.8,1.45,4.44l-3.76,11.86s-.03.08-.04.12c-22.07,62.38-86.92,117.66-157.7,134.42-8.21,1.94-16.87,2.93-25.74,2.93Zm-87.09-92.96c-2.07,0-4.04.24-5.87.71-8.62,2.22-13.56,9.39-13.91,20.19-.3,9.42,7.95,21.94,22.08,33.5,18.08,14.78,49.84,30.56,84.79,30.56,8.25,0,16.29-.91,23.9-2.71,68.26-16.17,130.75-69.31,151.98-129.24l.37-1.17c-8.76,5.31-17.85,9.83-27.12,13.51l-.06.12c-27.41,50.16-87.02,88.72-138.64,89.7-26.52.46-47.22-9.6-58.39-28.38-10.91-18.34-26.8-26.78-39.13-26.78Z"/>
      <path id="silhouette-2" data-name="silhouette" class="cls-5" d="m367.95,617.24c22.36-15.46,50.33-50.34,56.91-128.79,4.07-48.46-1.61-103.23-14.45-139.54-3.75-10.59-8.09-20.74-13.3-30.09-20.69-37.15-43.47-52.03-43.49-52.04-1.27-.97-2.55-1.92-3.86-2.85-1.76-1.27-3.55-2.52-5.4-3.72,0,0,0,0-.01,0,0,0,0,0-.01,0-20.79-13.31-44.21-20.45-69.62-21.22h0s0,0,0,0c-2.09-.06-4.2-.1-6.28-.1-60.51,0-123.04,25.67-147.39,71.79-19.36,36.66,7.08,46.95,9.21,49.39,10.71,9.58-22.11,115.97-22.11,115.97-17.14,1.99-46.18,14.14-49.9,41.83-.05.36,1.2,5.8,1.78,8.14.03.12.05.25.09.37.17.67.34,1.34.51,2.01-6.38-4.61-13.25-7.06-19.97-7.06-7.65,0-14.71,3.28-19.36,8.99-5.36,6.59-7.18,15.69-5.13,25.63,4.87,23.56,45.04,67.51,73.31,74.3,2.36.57,4.54.85,6.48.85,4.65,0,8.08-1.63,10.19-4.85,3.69-5.64,2.53-14.91.75-21.23,62.89,59.56,167.3,42.74,167.3,42.74h.4c14.57,0,31.18-1.36,56.24-10.77,25.06-9.42,37.12-19.72,37.12-19.72Z"/>
      <path class="cls-30" d="m406.32,352.12c-3.75-10.59-8.09-20.74-13.3-30.09-16.25-29.18-33.79-44.62-40.58-49.9,6.18,7.53,12.94,17.05,19.49,28.81,5.21,9.35,9.55,19.49,13.3,30.09,12.85,36.31,25.52,97.08,21.45,145.54-6.58,78.45-34.55,113.34-56.91,128.79,0,0-12.06,10.31-37.12,19.72-25.06,9.42-56.63,10.77-56.63,10.77,0,0-111.41,10.81-174.3-48.74,1.78,6.31,2.94,15.59-.75,21.23-2.1,3.22-5.53,4.85-10.19,4.85-1.94,0-4.12-.29-6.48-.85-9.89-2.37-21.23-9.3-32.01-18.31,15.3,18.21,36.3,35.37,53.1,39.4,2.36.57,4.54.85,6.48.85,4.65,0,8.08-1.63,10.19-4.85,3.69-5.64,2.53-14.91.75-21.23,62.89,59.56,167.3,42.74,167.3,42.74h.4c14.57,0,31.18-1.36,56.24-10.77,25.06-9.42,37.12-19.72,37.12-19.72,22.36-15.46,50.33-50.34,56.92-128.79,4.07-48.46-1.61-103.23-14.46-139.54Z"/>
      <path class="cls-30" d="m119,424.93c.37-1.51.72-2.98,1.06-4.42-5.62,18.27-13.54,42.75-18.01,56.47,1.03-.22,2.03-.41,2.99-.57,2.12-7.15,8.46-28.93,13.96-51.49Z"/>
      <path class="cls-30" d="m422.24,391.07c-5.53-13.73-12.53-26.98-21.4-38.62-114.11,23.48-199.18,47.98-199.18,47.98-34.57-1.13-77.12-3.14-77.12-3.14,0,1.64-2.72,11.05-6.47,23.23-.34,1.44-.7,2.91-1.06,4.42-5.5,22.55-11.84,44.34-13.96,51.49-.96.16-1.96.35-2.99.57-2.09,6.4-3.42,10.46-3.42,10.46,5.89,15.99,25.8,28.87,106.87,40.31,93.41,9.49,177.43.21,220.76-12.75,1.05-7,1.93-14.4,2.58-22.23,2.82-33.57,1-70.16-4.62-101.71Z"/>
      <path class="cls-30" d="m342.59,268.66s35.5,47.1-39.24,74.24l93.76-24.07s-9.2-29.77-54.53-50.17Z"/>
      <path class="cls-17" d="m240.4,657.94c-7.97,0-16.98-.33-26.65-1.26-29.02-2.77-69.05-11.61-101.19-37.44.13,4.48-.54,9.31-3.07,13.17-1.99,3.04-5.95,6.66-13.53,6.66-2.26,0-4.75-.32-7.41-.96-30.02-7.21-71.1-52.27-76.29-77.38-2.31-11.15-.2-21.43,5.94-28.97,5.42-6.65,13.6-10.46,22.47-10.46,4.64,0,9.36,1.03,13.96,3.03-.44-2.23-.38-2.67-.34-3.02,4-29.8,33.55-42.08,50.76-44.9,2.12-7.15,8.46-28.93,13.96-51.49,12.6-51.65,9.02-59.12,8.47-59.89-.03-.03-.06-.05-.09-.08-.23-.16-.79-.5-1.25-.77-6.72-4.03-27.16-16.3-8.63-51.39,14.79-28.01,43.53-45.36,65.04-54.98,26.92-12.04,58.23-18.95,85.88-18.95h0c2.12,0,4.26.03,6.38.1,0,0,.02,0,.02,0,26.14.79,50.25,8.14,71.66,21.85h.01s0,.01.01.02c0,0,.01,0,.02.01,1.71,1.11,3.47,2.33,5.56,3.83,1.16.83,2.39,1.73,3.84,2.84,1.99,1.35,24.44,17.05,44.66,53.35,5.01,9,9.45,19.04,13.58,30.7,13.02,36.8,18.78,92.23,14.67,141.21-6.7,79.87-35.46,115.67-58.47,131.64-1.64,1.36-14.01,11.22-38.14,20.29-25.79,9.7-42.95,11.03-57.64,11.03h-.09c-2.29.35-15.32,2.2-34.11,2.2Zm-133.5-52.94c1,0,1.99.37,2.75,1.1,31.61,29.93,74.36,39.69,104.66,42.61,33.1,3.19,59-.87,59.26-.91.21-.03.42-.05.63-.05h.4c13.94,0,30.23-1.27,54.83-10.52,23.98-9.01,35.81-18.93,35.93-19.03.1-.09.21-.17.32-.25,21.62-14.94,48.75-48.9,55.2-125.84,4.02-47.94-1.57-102.06-14.24-137.87-3.97-11.23-8.23-20.87-13.02-29.47-19.79-35.53-41.29-50.05-42.2-50.65-.09-.06-.19-.13-.27-.2-1.37-1.04-2.56-1.92-3.7-2.73-2-1.44-3.66-2.59-5.25-3.62,0,0,0,0,0,0-20.15-12.9-42.86-19.83-67.5-20.59-.03,0-.06,0-.09,0-2.05-.06-4.12-.09-6.16-.09-52.63,0-120.83,26.05-143.85,69.66-14.99,28.4-.51,37.08,5.68,40.79,1.23.74,2.08,1.25,2.75,1.94,2.54,2.38,4.72,7.46,2.22,25.85-1.4,10.31-4.15,23.93-8.16,40.49-6.8,28.07-15.02,55.31-15.1,55.58-.46,1.53-1.78,2.63-3.37,2.82-16.72,1.95-42.72,13.63-46.32,37.86.25,1.3,1.1,5.03,1.63,7.17l.06.28c.18.74.35,1.39.52,2.04.43,1.63-.21,3.36-1.6,4.32-1.39.96-3.24.94-4.61-.05-5.71-4.12-11.81-6.3-17.63-6.3-6.45,0-12.37,2.74-16.26,7.51-4.59,5.63-6.12,13.55-4.31,22.3,4.56,22.06,43.77,64.84,70.33,71.22,2.05.49,3.92.74,5.54.74,4.35,0,5.98-1.74,6.84-3.04,2.74-4.19,1.92-12.02.25-17.96-.49-1.73.24-3.58,1.78-4.51.64-.39,1.36-.58,2.07-.58Zm-44.67-83.49h0s0,0,0,0Zm65.29-156.43s0,0,.01,0c0,0,0,0-.01,0Zm-.33-.34s.08.09.13.14c-.04-.05-.09-.09-.13-.14Z"/>
      <g>
        <path class="cls-21" d="m402.84,332.66c-114.11,23.48-199.18,47.98-199.18,47.98-34.57-1.13-77.12-3.14-77.12-3.14,0,5.25-27.9,93.16-27.9,93.16,5.89,15.99,25.8,25.87,106.87,37.31,109.51,11.12,206.12-3.55,239.39-19.7,0,0,2.09-97.64-42.06-155.61Z"/>
        <path class="cls-17" d="m282.39,515.88c-24.33,0-50.29-1.18-77.29-3.92-.05,0-.1-.01-.16-.02-40.5-5.72-65.93-11.01-82.46-17.17-15.62-5.81-23.87-12.61-27.6-22.72-.31-.83-.33-1.75-.06-2.59,10.45-32.94,27.19-86.96,27.71-92.06.03-1.05.47-2.06,1.24-2.79.79-.75,1.87-1.15,2.95-1.1.42.02,42.4,2,76.44,3.12,7.91-2.25,90.93-25.67,198.87-47.88,1.51-.31,3.06.27,3.99,1.49,23.32,30.61,33.73,72.01,38.36,101.34,4.99,31.65,4.54,55.77,4.52,56.78-.03,1.5-.9,2.86-2.25,3.51-24.1,11.7-85.66,24-164.26,24Zm-76.4-11.87c109.97,11.15,202.09-3.7,234.92-18.29-.07-15.25-2.27-97.35-39.75-148.62-111.42,23.03-195.55,47.15-196.39,47.39-.4.12-.82.16-1.24.15-28.58-.94-62.99-2.49-73.78-2.99-3.83,15.86-20.64,69.22-26.87,88.85,5.71,13.1,25,22.47,103.11,33.5Zm-83.45-126.57s0,.05,0,.07c0-.02,0-.05,0-.07Z"/>
      </g>
      <path class="cls-19" d="m380.23,441.6c-23.22,13.8-102.29,23.79-102.29,23.79l-.88,38.97s77.05-15.53,117.09-34.49c29.97-14.19,39.42-63.09,33.32-70.23-4.76-5.57-26.47,29.61-47.24,41.96Z"/>
      <g>
        <path class="cls-26" d="m119.88,367.23l2.54,18.36c.12.93.87,1.64,1.8,1.73l66.2,5.06s.03-.19.07-.54c1.3-11.03-6.82-20.95-17.88-22.01l-50.55-4.85c-1.28-.12-2.34.98-2.17,2.25Z"/>
        <path class="cls-17" d="m190.41,396.38c-.1,0-.2,0-.3-.01l-66.2-5.06c-2.88-.27-5.09-2.41-5.46-5.2l-2.53-18.33s0-.02,0-.03c-.24-1.82.36-3.63,1.63-4.95,1.28-1.32,3.07-1.97,4.89-1.8l50.55,4.85c6.47.62,12.28,3.75,16.36,8.8,4.04,5.01,5.86,11.28,5.11,17.65-.05.46-.1.72-.1.72-.33,1.94-2.01,3.36-3.95,3.36Zm-64.25-12.92l60.39,4.62c-.28-3.04-1.45-5.95-3.43-8.4-2.72-3.37-6.59-5.45-10.9-5.86l-48.03-4.61,1.97,14.26Zm.21,1.56v.03s0-.02,0-.03Z"/>
      </g>
      <path class="cls-26" d="m403.11,316.54l5.57,16.53c.04.93-.56,1.77-1.46,2.02l-216.8,57.29s-1.38-21.8,14.28-27.16l195.88-50.51c1.24-.35,2.48.55,2.54,1.83Z"/>
      <path class="cls-13" d="m330.94,332.66s6.2,5.84,2.68,19.62l75.05-19.22-5.57-16.53-72.16,16.12Z"/>
      <path class="cls-17" d="m190.41,396.38c-.83,0-1.65-.26-2.34-.75-.97-.7-1.58-1.8-1.65-2.99-.06-1.01-1.36-24.92,16.98-31.2.1-.03.2-.06.3-.09l195.88-50.51c1.69-.48,3.56-.14,5.05.93,1.3.94,2.15,2.33,2.41,3.88l5.44,16.14c.12.35.19.71.2,1.08.14,2.82-1.67,5.31-4.38,6.07l-216.85,57.31c-.34.09-.68.13-1.02.13Zm15.44-27.33c-8.31,2.94-10.63,12.22-11.25,18.08l209.43-55.34-4.29-12.74-193.89,50Zm195.8-50.49l-.08.02s.05-.01.08-.02Z"/>
      <path class="cls-17" d="m187.97,505.21h-.08c-1.9-.04-3.41-1.62-3.37-3.52l2.44-109.39c.04-1.88,1.58-3.37,3.44-3.37h.08c1.9.04,3.41,1.62,3.37,3.52l-2.44,109.39c-.04,1.88-1.58,3.37-3.44,3.37Z"/>
      <g>
        <g>
          <path class="cls-4" d="m184.53,440.06c-7.35,0-14.27-.6-20.65-1.81-1.79-.34-2.97-2.07-2.64-3.87.34-1.79,2.08-2.97,3.87-2.64,11.85,2.24,32.09,3.38,61.27-3.96,1.77-.45,3.57.63,4.01,2.4.45,1.77-.63,3.57-2.4,4.01-15.47,3.89-30.17,5.85-43.46,5.85Z"/>
          <g>
            <circle class="cls-4" cx="158.04" cy="434.42" r="8.79"/>
            <path class="cls-27" d="m158.03,445.71c-2.77,0-5.41-1-7.49-2.86-2.25-2-3.59-4.77-3.76-7.78s.83-5.91,2.84-8.16c2-2.25,4.77-3.59,7.78-3.76,3.01-.16,5.91.83,8.16,2.84,2.25,2,3.59,4.77,3.76,7.78h0c.36,6.21-4.4,11.56-10.62,11.92-.22.01-.45.02-.67.02Zm.02-17.58c-.12,0-.25,0-.37.01-1.68.1-3.21.84-4.33,2.1-1.12,1.25-1.68,2.87-1.58,4.54.1,1.68.84,3.21,2.1,4.33,1.25,1.12,2.88,1.69,4.54,1.58,3.46-.2,6.11-3.18,5.91-6.64h0c-.1-1.68-.84-3.21-2.1-4.33-1.16-1.03-2.63-1.59-4.17-1.59Z"/>
          </g>
          <g>
            <circle class="cls-4" cx="233.53" cy="430.41" r="8.79"/>
            <path class="cls-27" d="m233.51,441.7c-2.77,0-5.41-1-7.49-2.86-2.25-2-3.59-4.77-3.76-7.78s.83-5.91,2.84-8.16c2-2.25,4.77-3.59,7.78-3.76,6.16-.36,11.56,4.4,11.92,10.62h0c.17,3.01-.83,5.91-2.84,8.16-2,2.25-4.77,3.59-7.78,3.76-.22.01-.45.02-.67.02Zm.02-17.58c-.12,0-.25,0-.37.01-1.68.1-3.21.84-4.33,2.1-1.12,1.25-1.68,2.87-1.58,4.54.1,1.68.84,3.21,2.1,4.33,1.25,1.12,2.87,1.68,4.54,1.58,3.46-.2,6.11-3.18,5.91-6.64h0c-.19-3.34-2.97-5.92-6.27-5.92Z"/>
          </g>
        </g>
        <g>
          <path class="cls-4" d="m178.87,406.6c-5.72,0-11.16-.39-16.27-1.18-1.81-.28-3.04-1.97-2.76-3.78.28-1.8,1.96-3.04,3.78-2.76,11.89,1.84,32.15,2.29,61.1-6.04,1.75-.5,3.59.51,4.09,2.27.5,1.76-.51,3.59-2.27,4.09-17.06,4.91-33.24,7.4-47.66,7.4Z"/>
          <g>
            <circle class="cls-4" cx="156.67" cy="401.82" r="8.79"/>
            <path class="cls-27" d="m156.65,413.11c-2.64,0-5.18-.92-7.23-2.63-2.31-1.94-3.73-4.66-4-7.66-.55-6.2,4.05-11.69,10.25-12.24,6.18-.55,11.69,4.05,12.24,10.25.27,3-.65,5.93-2.59,8.24s-4.66,3.73-7.66,4c-.34.03-.68.04-1.01.04Zm.02-17.58c-.18,0-.37,0-.56.02-3.45.31-6.01,3.36-5.71,6.82.15,1.67.94,3.19,2.23,4.27,1.29,1.08,2.92,1.59,4.59,1.44,1.67-.15,3.19-.94,4.27-2.23,1.08-1.29,1.59-2.92,1.44-4.59-.29-3.27-3.04-5.73-6.26-5.73Z"/>
          </g>
          <g>
            <circle class="cls-4" cx="231.96" cy="395.16" r="8.79"/>
            <path class="cls-27" d="m231.94,406.45c-2.64,0-5.18-.92-7.23-2.63-2.31-1.94-3.73-4.66-4-7.66-.27-3,.65-5.93,2.59-8.24s4.66-3.73,7.66-4c3.01-.27,5.93.65,8.24,2.59,2.31,1.94,3.73,4.66,4,7.66h0c.27,3-.65,5.93-2.59,8.24s-4.66,3.73-7.66,4c-.34.03-.68.04-1.01.04Zm.03-17.58c-.19,0-.38,0-.56.03-1.67.15-3.19.94-4.27,2.23-1.08,1.29-1.59,2.92-1.44,4.59s.94,3.19,2.23,4.27c1.29,1.08,2.92,1.59,4.59,1.44,1.67-.15,3.19-.94,4.27-2.23,1.08-1.29,1.59-2.92,1.44-4.59h0c-.15-1.67-.94-3.19-2.23-4.27-1.14-.96-2.55-1.47-4.03-1.47Z"/>
          </g>
        </g>
        <g>
          <path class="cls-4" d="m185.38,473.98c-7.35,0-14.27-.6-20.65-1.81-1.79-.34-2.97-2.07-2.64-3.87.34-1.79,2.07-2.97,3.87-2.64,11.85,2.24,32.09,3.37,61.27-3.96,1.76-.45,3.57.63,4.01,2.4.45,1.77-.63,3.57-2.4,4.01-15.47,3.89-30.17,5.85-43.46,5.85Z"/>
          <g>
            <circle class="cls-4" cx="158.89" cy="468.34" r="8.79"/>
            <path class="cls-27" d="m158.89,479.63c-5.93,0-10.92-4.64-11.26-10.63-.36-6.21,4.4-11.56,10.62-11.92,3.01-.17,5.91.83,8.16,2.84,2.25,2,3.59,4.77,3.76,7.78h0c.36,6.21-4.4,11.56-10.62,11.92-.22.01-.44.02-.66.02Zm.01-17.58c-.12,0-.25,0-.37.01-3.46.2-6.11,3.18-5.91,6.64.2,3.46,3.19,6.13,6.64,5.91,3.46-.2,6.11-3.18,5.91-6.64h0c-.1-1.68-.84-3.21-2.1-4.33-1.16-1.03-2.63-1.59-4.17-1.59Z"/>
          </g>
          <g>
            <circle class="cls-4" cx="234.38" cy="464.33" r="8.79"/>
            <path class="cls-27" d="m234.36,475.62c-2.77,0-5.41-1-7.49-2.86-2.25-2-3.59-4.77-3.76-7.78s.83-5.91,2.84-8.16c2-2.25,4.77-3.59,7.78-3.76,3-.17,5.91.83,8.16,2.84,2.25,2,3.59,4.77,3.76,7.78h0c.36,6.21-4.4,11.56-10.62,11.92-.22.01-.45.02-.67.02Zm.02-17.58c-.12,0-.25,0-.37.01-1.68.1-3.21.84-4.33,2.1-1.12,1.25-1.68,2.87-1.58,4.54.1,1.68.84,3.21,2.1,4.33,1.25,1.12,2.86,1.68,4.54,1.58,3.46-.2,6.11-3.18,5.91-6.64h0c-.1-1.68-.84-3.21-2.1-4.33-1.16-1.03-2.63-1.59-4.17-1.59Z"/>
          </g>
        </g>
      </g>
      <path class="cls-17" d="m180.31,304.2c-7.09,5.32-4.95,11.89,2.97,12.88,7.93.99,8.54,1.51,15.85-3.96,7.92-5.94,8.91-15.85,0-14.86-8.91.99-14.86,2.97-18.82,5.94Z"/>
      <circle class="cls-17" cx="150.59" cy="308.17" r="8.91"/>
      <circle class="cls-17" cx="253.61" cy="283.41" r="8.91"/>
      <path class="cls-17" d="m134.67,365.36c-2.21,0-4-1.79-4-4s1.79-4,4-4c9.78,0,40.34-11.69,50.04-29.33.53-.96,1.42-1.66,2.48-1.94,1.06-.28,2.18-.11,3.12.46,9.83,6.04,20.68,8.97,33.17,8.97s25.15-3,37.12-6.63c.05-.02.1-.03.15-.05,1.85-.56,3.68-1.13,5.49-1.71,0,0,0,0,0,0,2.11-.67,4.36.49,5.03,2.59.67,2.1-.49,4.36-2.59,5.03h0s-.06.02-.09.03c0,0,0,0,0,0-14.21,4.54-29.5,8.74-45.11,8.74-12.58,0-23.72-2.68-33.92-8.17-13.06,18.76-43.76,30.01-54.9,30.01Z"/>
      <g>
        <polygon class="cls-28" points="418.81 342.48 145.67 556.97 126.7 528.15 401.27 310.84 418.81 342.48"/>
        <polygon class="cls-14" points="412.71 336.41 141.14 549.71 130.2 535.46 405.39 319.1 412.71 336.41"/>
        <path class="cls-17" d="m145.67,560.97c-.21,0-.43-.02-.64-.05-1.1-.18-2.08-.81-2.7-1.75l-18.97-28.83c-1.14-1.73-.77-4.05.86-5.34l274.57-217.31c.92-.73,2.12-1.02,3.27-.79,1.15.23,2.14.96,2.71,1.98l17.54,31.65c.95,1.72.52,3.87-1.03,5.08l-273.14,214.49c-.71.56-1.58.85-2.47.85Zm-13.61-31.96l14.56,22.13,267.04-209.7-13.6-24.54-268,212.11Z"/>
      </g>
      <g>
        <path class="cls-29" d="m99.79,358.71c-27.8,3.88-49.65,60.97-49.37,130.75.29,69.78,22.61,126.72,50.44,130.41h30.46s0-261.18,0-261.18l-31.54.02Z"/>
        <path class="cls-29" d="m131.33,358.71v-.02l-31.54.02c-27.8,3.88-49.65,60.97-49.37,130.75.29,69.78,22.61,126.72,50.44,130.41h172.47v-261.18l-142.01.02Z"/>
        <path class="cls-16" d="m63.78,391.62v18.99h21.41c2.08-6.89,4.43-13.26,7.01-18.99h-28.42Z"/>
        <path class="cls-8" d="m123.86,360.09c-27.8,3.88-49.65,60.97-49.37,130.75.29,69.78,22.61,126.72,50.44,130.41h118.36c-27.83-3.69-50.15-60.63-50.44-130.41-.29-69.78,21.57-126.87,49.37-130.75h-118.36Z"/>
        <path class="cls-3" d="m124.93,621.25h118.36c-22.53-2.99-41.45-40.87-47.99-92.21h-118.36c6.54,51.34,25.46,89.22,47.99,92.21Z"/>
        <path class="cls-16" d="m210.38,391.62c-2.58,5.74-4.93,12.1-7.01,18.99h20.2l6.81-18.99h-20.01Z"/>
        <g>
          <g>
            <path class="cls-17" d="m258.21,379.88H79.39c-2.21,0-4-1.79-4-4s1.79-4,4-4h178.82c2.21,0,4,1.79,4,4s-1.79,4-4,4Z"/>
            <g>
              <path class="cls-11" d="m121.65,378.82c.71-1.96,1.44-3.91,2.18-5.86,1.04-2.7,4.21-4.9,7-4.9,19.33,0,38.66,0,57.99,0,2.79,0,4.19,2.2,3.15,4.9-.75,1.95-1.47,3.9-2.18,5.86-.98,2.72-4.03,4.95-6.82,4.95-19.33,0-38.66,0-57.99,0-2.79,0-4.31-2.23-3.33-4.95Z"/>
              <path class="cls-17" d="m124.98,387.77c-2.62,0-4.93-1.13-6.32-3.11-1.42-2.02-1.7-4.64-.77-7.2h0c.72-1.98,1.45-3.96,2.21-5.93,1.63-4.26,6.25-7.47,10.74-7.47h57.99c2.62,0,4.91,1.13,6.26,3.09,1.39,2.02,1.62,4.66.63,7.24-.74,1.92-1.46,3.85-2.16,5.79-1.56,4.32-6.11,7.59-10.58,7.59h-58Zm.58-8h57.42c1,0,2.61-1.06,3.05-2.31.65-1.81,1.32-3.61,2.01-5.41h-57.2c-1.15,0-2.83,1.2-3.27,2.33-.69,1.79-1.35,3.58-2.01,5.38Z"/>
            </g>
          </g>
          <g>
            <path class="cls-17" d="m243.15,436.09H60.34c-2.21,0-4-1.79-4-4s1.79-4,4-4h182.81c2.21,0,4,1.79,4,4s-1.79,4-4,4Z"/>
            <g>
              <path class="cls-11" d="m107.14,435.13c.35-2.03.71-4.06,1.09-6.08.53-2.81,3.29-5.1,6.08-5.1,19.33,0,38.66,0,57.99,0,2.79,0,4.6,2.29,4.07,5.1-.38,2.03-.75,4.05-1.09,6.08-.48,2.81-3.11,5.12-5.9,5.12-19.33,0-38.66,0-57.99,0-2.79,0-4.73-2.31-4.25-5.12Z"/>
              <path class="cls-17" d="m169.39,444.25h-58c-2.5,0-4.83-1.06-6.39-2.9-1.57-1.87-2.23-4.38-1.8-6.89.35-2.05.72-4.11,1.11-6.16.88-4.68,5.28-8.35,10.01-8.35h58c2.49,0,4.79,1.05,6.31,2.88,1.55,1.88,2.17,4.41,1.69,6.96-.38,2-.74,4-1.08,6.01-.8,4.74-5.12,8.46-9.84,8.46Zm-55.07-16.31c-.88,0-1.98.95-2.15,1.84-.38,2-.74,4-1.08,6.01h0c-.04.24,0,.36.03.39.02.02.1.06.28.06h57.99c.83,0,1.8-.89,1.96-1.79.35-2.06.72-4.11,1.11-6.16.04-.19.02-.31,0-.36-.02,0-.07,0-.14,0h-58Zm-7.17,7.18h0,0Z"/>
            </g>
          </g>
          <g>
            <path class="cls-17" d="m238.14,492.29H55.32c-2.21,0-4-1.79-4-4s1.79-4,4-4h182.82c2.21,0,4,1.79,4,4s-1.79,4-4,4Z"/>
            <g>
              <path class="cls-11" d="m102.67,491.37c-.02-2.05-.02-4.11,0-6.16.03-2.85,2.38-5.17,5.17-5.17,19.33,0,38.66,0,57.99,0,2.79,0,5.01,2.33,4.98,5.17-.02,2.05-.02,4.11,0,6.16.03,2.85-2.19,5.18-4.98,5.17-19.33,0-38.66,0-57.99,0-2.79,0-5.14-2.33-5.17-5.17Z"/>
              <path class="cls-17" d="m165.84,500.54h-58c-5.01,0-9.12-4.1-9.16-9.14h0c-.02-2.08-.02-4.16,0-6.23.05-5.04,4.16-9.14,9.17-9.14h57.99c2.39,0,4.64.94,6.33,2.64,1.73,1.75,2.67,4.08,2.65,6.56-.02,2.03-.02,4.06,0,6.09.03,2.48-.91,4.81-2.65,6.56-1.69,1.71-3.94,2.65-6.33,2.65Zm-58-16.51c-.6,0-1.16.58-1.17,1.21-.02,2.02-.02,4.05,0,6.08h0c0,.64.56,1.21,1.17,1.21h58c.25,0,.47-.09.65-.28.12-.13.33-.41.33-.85-.02-2.08-.02-4.16,0-6.24,0-.45-.21-.73-.33-.86-.18-.18-.4-.28-.65-.28h-57.99Z"/>
            </g>
          </g>
          <g>
            <path class="cls-17" d="m243.15,548.49H60.34c-2.21,0-4-1.79-4-4s1.79-4,4-4h182.81c2.21,0,4,1.79,4,4s-1.79,4-4,4Z"/>
            <g>
              <path class="cls-11" d="m108.24,547.53c-.38-2.02-.75-4.05-1.09-6.08-.48-2.81,1.46-5.13,4.25-5.12,19.33,0,38.66,0,57.99,0,2.79,0,5.42,2.31,5.9,5.12.34,2.03.71,4.06,1.09,6.08.53,2.81-1.27,5.1-4.07,5.1-19.33,0-38.66,0-57.99,0-2.79,0-5.55-2.29-6.08-5.1Z"/>
              <path class="cls-17" d="m114.32,556.63c-4.72,0-9.12-3.67-10.01-8.35h0c-.39-2.05-.76-4.11-1.11-6.16-.42-2.52.24-5.03,1.81-6.89,1.56-1.84,3.88-2.9,6.38-2.9h58c4.71,0,9.03,3.71,9.84,8.45.34,2.01.7,4.01,1.08,6.01.48,2.55-.13,5.08-1.68,6.96-1.52,1.83-3.82,2.88-6.31,2.88h-58Zm-2.15-9.84c.17.9,1.28,1.84,2.15,1.84h58c.08,0,.13,0,.17-.02-.01-.03,0-.14-.03-.34-.39-2.05-.76-4.1-1.11-6.16-.15-.9-1.12-1.79-1.96-1.79h-57.99c-.15,0-.25.03-.27.06-.03.03-.07.16-.03.4.34,2,.7,4.01,1.08,6h0Z"/>
            </g>
          </g>
          <g>
            <path class="cls-17" d="m258.21,604.69H85.39c-2.21,0-4-1.79-4-4s1.79-4,4-4h172.82c2.21,0,4,1.79,4,4s-1.79,4-4,4Z"/>
            <g>
              <path class="cls-11" d="m123.83,603.61c-.75-1.95-1.48-3.9-2.18-5.86-.98-2.72.54-4.95,3.33-4.95,19.33,0,38.66,0,57.99,0,2.79,0,5.84,2.23,6.82,4.95.71,1.96,1.44,3.91,2.18,5.86,1.04,2.7-.36,4.9-3.15,4.9-19.33,0-38.66,0-57.99,0-2.79,0-5.97-2.2-7-4.9Z"/>
              <path class="cls-17" d="m188.83,612.51h-57.99c-4.49,0-9.11-3.21-10.74-7.47-.76-1.97-1.49-3.95-2.21-5.93-.93-2.55-.65-5.18.77-7.19,1.39-1.98,3.7-3.12,6.33-3.12h57.99c4.47,0,9.02,3.27,10.58,7.59.7,1.93,1.42,3.86,2.16,5.79.99,2.58.76,5.22-.63,7.24-1.35,1.97-3.63,3.09-6.26,3.09Zm-63.27-15.71c.65,1.8,1.32,3.59,2.01,5.38,0,0,0,0,0,0,.43,1.13,2.11,2.33,3.27,2.33h57.2c-.69-1.8-1.35-3.6-2.01-5.4-.45-1.25-2.06-2.31-3.06-2.31h-57.41Z"/>
            </g>
          </g>
        </g>
        <path class="cls-9" d="m274.66,358.69h-1.33s0,0,0,0l-142.01.02v-.02l-31.54.02c-27.8,3.88-49.65,60.97-49.37,130.75.29,69.78,22.61,126.72,50.44,130.41h24.98s5.49,0,5.49,0h112.87s29.13,0,29.13,0h1.33s0-261.18,0-261.18Z"/>
        <path class="cls-18" d="m216.44,489.47c.29,69.78,22.61,126.72,50.44,130.41l5.89-.02c27.8-3.88,49.65-60.97,49.37-130.75-.29-69.78-22.61-126.72-50.44-130.41l-5.89.02c-27.8,3.88-49.65,60.97-49.37,130.75Z"/>
        <path class="cls-17" d="m273.33,623.88H100.86c-.18,0-.35-.01-.53-.03-30.44-4.03-53.62-61.8-53.91-134.36-.3-72.57,22.41-130.49,52.81-134.73.19-.03.34-.05.56-.04l173.54.27c.27,0,.54.03.81.08,14.53,3.04,27.8,18.67,37.37,44.03,9.29,24.61,14.48,56.57,14.62,89.99h0c.29,70.97-21.63,128.35-51.15,134.43-.5.23-1.06.36-1.65.36Zm-172.19-8h171.24c.1-.02.2-.04.3-.06,25.33-4.2,45.73-61.04,45.46-126.69h0c-.13-32.49-5.14-63.46-14.1-87.2-8.35-22.13-19.68-36.29-31.14-38.94l-172.82-.27c-25.47,3.92-45.93,60.63-45.66,126.74.27,66.12,21.2,122.7,46.72,126.43Z"/>
        <path class="cls-7" d="m268.05,406.13h3.84c14.95,1.61,27.16,21.46,30.75,48.09.64-4.82,1.01-9.85,1.06-15.02.36-35.04-13.72-63.71-31.81-65.64h-3.84c-18.13,1.86-32.81,30.46-33.17,65.51-.06,6.08.31,11.97,1.06,17.56,3.71-27.88,16.65-48.91,32.11-50.5Z"/>
        <path class="cls-25" d="m272.75,535.34c-20.89,2.37-46.29-26.73-46.29-26.73-.5,7.21,8.42,49.58,16.79,64.1,10.35,17.96,20.24,23.72,27.01,23.06,52.19-5.09,42.19-140.41,40.91-148.69,0,0-5.7,84.55-38.42,88.26Z"/>
        <path class="cls-17" d="m266.62,623.88l-.27-.04c-30.44-4.03-53.62-61.8-53.91-134.36-.3-72.57,22.41-130.49,52.81-134.73l.54-.04,6.16-.02.27.04c30.44,4.03,53.62,61.8,53.91,134.36.3,72.57-22.41,130.49-52.81,134.73l-.54.04-6.16.02Zm-.52-261.17c-25.47,3.91-45.94,60.62-45.67,126.74.27,66.12,21.2,122.69,46.71,126.43l5.32-.02c25.47-3.91,45.94-60.62,45.67-126.74-.27-66.12-21.2-122.69-46.71-126.43l-5.32.02Z"/>
        <path class="cls-22" d="m210.84,391.62h-118.36c-2.65,5.71-5.07,12.08-7.22,18.99h118.36c2.14-6.92,4.56-13.28,7.22-18.99Z"/>
        <path class="cls-17" d="m273.33,623.88H100.86c-.18,0-.35-.01-.53-.03-30.44-4.03-53.62-61.8-53.91-134.36-.3-72.57,22.41-130.49,52.81-134.73.19-.03.34-.05.56-.04l173.54.27c.27,0,.54.03.81.08,14.53,3.04,27.8,18.67,37.37,44.03,9.29,24.61,14.48,56.57,14.62,89.99h0c.29,70.97-21.63,128.35-51.15,134.43-.5.23-1.06.36-1.65.36Zm-172.19-8h171.24c.1-.02.2-.04.3-.06,25.33-4.2,45.73-61.04,45.46-126.69h0c-.13-32.49-5.14-63.46-14.1-87.2-8.35-22.13-19.68-36.29-31.14-38.94l-172.82-.27c-25.47,3.92-45.93,60.63-45.66,126.74.27,66.12,21.2,122.7,46.72,126.43Z"/>
      </g>
      <g>
        <path class="cls-17" d="m285.37,478.77c-3.98,0-7.88-1.97-10.16-5.58l-31.78-50.09c-7.42-.06-14.45-3.84-18.56-10.32l-16.1-25.45c-6.54-10.35-3.45-24.09,6.89-30.63l4.83-3.05c5-3.16,10.94-4.19,16.74-2.88,5.8,1.3,10.73,4.77,13.89,9.77l16.1,25.45c4.17,6.58,4.46,14.84,1.14,21.65l31.63,49.86c1.72,2.71,2.27,5.93,1.57,9.06-.7,3.13-2.58,5.79-5.29,7.51l-4.51,2.85c-1.99,1.26-4.2,1.86-6.4,1.86Zm2.51-13.61h0s0,0,0,0Zm-40.61-57.51c1.82,0,3.57.66,4.93,1.85-.62-2.37-.05-4.95,1.63-6.86,2.12-2.4,2.41-5.95.72-8.63l-16.1-25.45c-1.02-1.61-2.62-2.73-4.51-3.16-1.88-.42-3.81-.1-5.43.92,0,0,0,0,0,0l-4.83,3.05c-3.35,2.12-4.36,6.58-2.23,9.93l16.1,25.45c1.64,2.59,4.88,3.87,7.88,3.11.61-.15,1.23-.23,1.84-.23Zm-22.76-47.66h0,0Z"/>
        <path class="cls-2" d="m292.27,467.72l-4.51,2.86c-2.1,1.33-4.88.7-6.2-1.4l-37.24-58.71,12.12-7.67,37.24,58.71c1.33,2.1.7,4.88-1.4,6.2Z"/>
        <g class="cls-32">
          <rect class="cls-20" x="224.9" y="363.82" width="35.12" height="59.52" rx="14.7" ry="14.7" transform="translate(-172.86 190.6) rotate(-32.32)"/>
        </g>
        <rect class="cls-10" x="220.45" y="356.9" width="35.12" height="59.52" rx="14.7" ry="14.7" transform="translate(-169.85 187.14) rotate(-32.32)"/>
      </g>
      <path class="cls-5" d="m376.4,545.86c-29.43-28.49-91.24-21.47-111.25,29.4-11.5,29.24-11.53,47.28-11.53,47.28,0,0,66.83,7.92,99.15-26.74,31.43-33.7,23.64-49.94,23.64-49.94Z"/>
      <path class="cls-17" d="m266.83,577.8c-.54,0-1.09-.11-1.61-.34-2.02-.89-2.94-3.25-2.05-5.27,10.91-24.73,31.79-41.78,57.29-46.77,22.8-4.46,45.38,1.56,60.4,16.11,1.59,1.54,1.63,4.07.09,5.66-1.54,1.59-4.07,1.63-5.66.09-13.15-12.73-33.08-17.97-53.3-14.01-22.9,4.48-41.67,19.84-51.51,42.15-.66,1.5-2.13,2.39-3.66,2.39Z"/>
      <path class="cls-17" d="m113.48,596.94c-3.39-7.74-29.64-61.98-46.31-74.8-2.23-1.72-4.56-3.23-6.94-4.52-10.94-13.72-25.44-21.58-37.12-20.06-5.34.7-12.59,3.63-16.87,13.63-1.03,2.16-12.77,28.05-1.12,65.69,4.44,14.36,10.84,17,17.03,19.55,7.01,2.89,14.96,6.16,24.98,30.61.05.12.11.25.17.37,4.01,7.51,14.75,19.64,29.75,19.64,2.65,0,5.43-.38,8.32-1.23,11.9-3.48,23.55-7.67,28.2-14.71,7.06-10.71,3.03-27.03-.09-34.17Z"/>
      <g>
        <path class="cls-24" d="m84.62,578.47c-2.31-3.91-11.38-13.72-13.59-27.32-6.4-39.32-49.3-66.19-61.15-38.31,0,0-12.52,25.44-.95,62.85,8.76,28.31,22.73,3.1,41.9,49.82,0,0,12.33,23.36,33.42,16.46,28.09-9.19,19.03-31.94.37-63.5Z"/>
        <path class="cls-17" d="m76.65,647.23c-14.68,0-25.32-12.2-29.36-19.85-.06-.11-.11-.23-.16-.35-10.03-24.45-17.97-27.72-24.98-30.61-6.19-2.55-12.59-5.19-17.03-19.55-11.65-37.64.09-63.54,1.12-65.69,4.25-9.91,12.62-14.88,22.97-13.62,18.3,2.21,41.05,24.01,45.77,52.95,1.61,9.87,7.31,17.75,10.71,22.47,1.01,1.4,1.8,2.5,2.38,3.46h0c13.87,23.46,21.48,40.62,16.57,53.65-2.73,7.24-8.99,12.37-19.14,15.69-3.09,1.01-6.04,1.46-8.85,1.46Zm-22.2-23.44c1.09,1.98,11.58,19.94,28.56,14.38,7.7-2.52,12.33-6.09,14.14-10.91,3.77-10-3.66-25.93-15.97-46.76-.38-.65-1.12-1.67-1.97-2.85-3.82-5.29-10.21-14.13-12.13-25.87-4.07-25.01-23.73-44.47-38.83-46.29-6.88-.84-11.83,2.16-14.69,8.9-.03.07-.06.14-.09.2-.11.23-11.63,24.62-.71,59.91,3.33,10.76,6.95,12.25,12.44,14.52,8.02,3.3,17.99,7.42,29.25,34.77Z"/>
      </g>
      <path class="cls-17" d="m77.13,571.65c-1.03-1.57-2.35-17.73-5.31-17.64-19.4,18.41-53.53,32-55.71,31.14-2.37.41-2.79,3.93-.55,4.86,0,0,10.88,4.06,14.2,6.6,1.21.92,31.32-7.28,47.37-24.96Z"/>
      <path class="cls-17" d="m103.23,611.46l-7.14-12.37c-.47-.81-1.37-1.32-2.33-1.28l-11.03.36c-.41.01-.81.12-1.17.32l-28.97,15.79c-1.24.67-1.68,2.2-.98,3.4l9.62,16.67c3.73,6.46,10.6,10.13,17.61,10.13,3.22,0,6.46-.77,9.44-2.4l7.61-4.15c9.48-5.17,12.77-17.05,7.33-26.48Z"/>
      <path class="cls-21" d="m187.55,92.9c-34.72,5.95-79.03,19.36-77.84,26.33,8.57,50,31.35,88.19,39.92,138.19,43.13,6.27,82.41-7.05,127.08-24.77-8.57-50,1.57-90.85-7-140.85-1.19-6.97-47.45-4.86-82.16,1.1Z"/>
      <path class="cls-19" d="m269.71,91.81c-.77-4.51-20.46-5.22-43.66-3.53,4.75.7,7.68,1.85,7.97,3.53,8.57,50,6.92,90.2,15.5,140.2-30.57,12.12-67.12,25.8-95.61,28.94,41.46,4.82,79.62-8.2,122.8-25.32-8.57-50,1.57-93.81-7-143.81Z"/>
      <path class="cls-9" d="m187.55,95.75c-34.72,5.95-79.03,19.36-77.84,26.33,8.57,50,31.35,79.92,39.92,129.92,43.13,6.27,87.14-1.27,125.72-21.55-8.57-50,2.94-85.8-5.63-135.8-1.19-6.97-47.45-4.86-82.16,1.1Z"/>
      <path class="cls-9" d="m187.55,95.75c-34.72,5.95-79.03,19.36-77.84,26.33,8.57,50,31.35,79.92,39.92,129.92,43.13,6.27,87.14-1.27,125.72-21.55-8.57-50,2.94-85.8-5.63-135.8-1.19-6.97-47.45-4.86-82.16,1.1Z"/>
      <path class="cls-4" d="m141.49,111.3c-9.14,2.85-15.39,5.29-19.49,7.21l49.42,105.68,26.24-4.5,11.91-122.8c-6.7.79-13.34,1.74-19.53,2.8-15.71,2.69-33.87,7.03-48.56,11.61Z"/>
      <g>
        <path class="cls-9" d="m269.21,165.01c.38-21.88.77-44.51-3.3-68.8-2.12-1.02-10-2.43-28.04-1.75-15.38.58-33.94,2.54-49.66,5.23s-33.87,7.03-48.56,11.61c-17.24,5.37-24.19,9.32-25.85,10.99,4.26,24.31,12.07,46.29,19.63,67.55,3.67,10.33,7.4,20.84,10.77,31.72,41.45-3.16,83.43-11.7,124.91-25.62-.25-10.55-.08-20.82.09-30.94Z"/>
        <path class="cls-9" d="m151.59,282.77c4.33,6.01,15.17,6.38,23.49,5.64,33.8-3.03,59.18-17.16,71.3-25.3,10.41-7,17.37-13.62,21.51-18.58-38.73,11.45-77.9,18.21-116.65,20.27-1.78,5.45-3.2,13.06.34,17.98Z"/>
        <path class="cls-26" d="m272.71,235.69c-.03-.12-.06-.25-.08-.37-2.29-13.66-3.2-26.71-3.51-39.37-41.48,13.92-83.46,22.46-124.91,25.62,3.59,11.6,6.78,23.62,9.06,36.33.14.78.04,1.58-.27,2.3-.51,1.16-1.15,2.75-1.75,4.59,38.75-2.07,77.92-8.83,116.65-20.27,3.31-3.97,4.82-6.88,4.82-8.05v-.77Z"/>
      </g>
      <path class="cls-13" d="m151.63,252.01v8.27c34.65,3.38,91.12-10.39,127.08-24.65-2.35-13.72-3.29-27.98-3.6-41.02-9.16,3.15-18.34,6.04-27.54,8.66,1.03,8.98,2.3,18.18,3.94,27.74-30.99,16.71-99.88,21-99.88,21Z"/>
      <path class="cls-9" d="m187.55,95.75c-34.72,5.95-79.03,19.36-77.84,26.33,8.57,50,31.35,88.19,39.92,138.19,43.13,6.27,82.41-7.05,127.08-24.77-8.57-50,1.57-90.85-7-140.85-1.19-6.97-47.45-4.86-82.16,1.1Z"/>
      <path class="cls-17" d="m278.71,234.62c-94.68,27.36-127.34,23.87-127.34,23.87-6.07,13.87-10.05,37.14,26.06,33.9,60.11-5.4,101.27-45.21,101.27-55.92,0-.96,0-1.87,0-1.84Z"/>
      <path class="cls-17" d="m169.07,296.69c-11.5,0-19.55-3.1-23.98-9.24-6.55-9.08-3.01-21.83.08-29.31-4.33-23.52-11.93-44.92-19.28-65.61-7.76-21.84-15.78-44.42-20.13-69.76-.82-4.79,4.32-8.1,8.89-10.45,4.59-2.36,11.07-4.91,19.27-7.58,15.65-5.09,35.44-9.92,52.95-12.92s37.78-5.04,54.23-5.45c8.62-.22,15.58.03,20.69.73,5.09.7,11.04,2.11,11.86,6.89,4.35,25.37,3.95,48.65,3.56,71.17-.37,21.58-.76,43.89,3.13,67.8.13.29.23.6.3.93.05.29.08.58.07.87v.66s0,.07,0,.11v.94c0,14.64-45.41,54.57-104.92,59.91-2.36.21-4.6.32-6.72.32Zm-55.27-174.4c4.26,24.31,12.07,46.29,19.63,67.55,7.58,21.35,15.43,43.42,19.83,68.05.14.78.04,1.58-.27,2.3-2,4.59-6.15,15.99-1.4,22.57,4.33,6.01,15.17,6.38,23.49,5.64,33.8-3.03,59.18-17.16,71.3-25.3,18.75-12.6,26.33-24,26.33-26.64v-.77c-.03-.12-.06-.25-.08-.37-4.19-25.03-3.8-48.05-3.41-70.31.38-21.88.77-44.51-3.3-68.8-2.12-1.02-10-2.43-28.04-1.75-15.38.58-33.94,2.54-49.66,5.23s-33.87,7.03-48.56,11.61c-17.24,5.37-24.19,9.32-25.85,10.99Z"/>
      <path class="cls-6" d="m350.18,264.49c-.62,0-1.17.02-1.61.06-1.54.13-2.9,1.04-3.6,2.42-.7,1.38-.63,3.02.17,4.33,1.71,2.79,5.26,6.57,9.51,10.12l1.12.95c31.99,27.28,56.41,33.01,71.26,33.01,5.47,0,10.78-.76,15.78-2.26,23.11-6.94,37.4-21.45,43.06-32.71,2.46-4.91,2.83-8.16,2.83-9.67,0-2.28-1.73-4.2-4-4.43-3.15-.32-10.8-.47-23.39-.47-6.54,0-13.99.04-21.9.08-8.99.05-18.59.09-28.17.09-17.67,0-42.96-.15-58.57-1.41-.86-.07-1.69-.1-2.48-.1h0Z"/>
      <path class="cls-1" d="m488.69,270.73c-.32-.03-57.64,54.91-137.54,2.04-16.35-10.82-6.17,2.23,4.61,10.26,52.45,45.98,101.91,41.84,130.1-1.96,3.11-7.33,9.18-8.21,2.83-10.34Z"/>
      <path class="cls-29" d="m233.9,59.29c28.95,9.43,19.34,51.71-11.07,51.68,27.54,23.9-16.85,52.22-41.53,38.11-.99,4.33.57,48.19,8.22,67.66,0,0-.91,1.5-1.9,1.73-.87.2-3.17-.39-3.17-.39-10.38-15.8-41.14-76.08-28.91-139.67,23.27-120.94,146.44-69.67,78.36-19.12Z"/>
      <path class="cls-16" d="m227.37,55.29c28.95,9.43,19.34,51.71-11.07,51.68,27.54,23.9-16.85,52.22-41.53,38.11-.99,4.33.57,48.19,8.22,67.66,0,0-.91,1.5-1.9,1.73-.87.2-3.17-.39-3.17-.39-10.38-15.8-41.14-76.08-28.91-139.67,23.27-120.94,146.44-69.67,78.36-19.12Z"/>
      <g>
        <path class="cls-27" d="m207.49,218.96c2.35,13.72-6.61,25.76-18.96,26.81-11.32.96-21.46-7.82-23.47-19.54-2.01-11.72,4.63-23.37,15.62-26.24,12-3.13,24.46,5.24,26.81,18.96Z"/>
        <path class="cls-16" d="m181.2,203.04c2.46-.61,4.98-.68,7.49-.19,1.22.24,2.44.61,3.6,1.11,1.17.5,2.3,1.12,3.36,1.86,1.07.74,2.08,1.6,3,2.56.93.97,1.78,2.04,2.51,3.19,1.53,2.4,2.57,5.09,3.06,7.96.49,2.88.41,5.75-.23,8.53-.31,1.33-.75,2.62-1.3,3.84-.55,1.21-1.21,2.35-1.98,3.41-.76,1.05-1.62,2.02-2.55,2.87-.94.86-1.96,1.61-3.03,2.24-2.2,1.3-4.61,2.07-7.13,2.31-2.48.24-4.93-.05-7.28-.84-1.12-.38-2.21-.87-3.25-1.46-1.02-.58-2-1.27-2.91-2.04-.9-.77-1.75-1.62-2.51-2.54-.77-.93-1.46-1.93-2.06-2.98-1.24-2.17-2.08-4.54-2.51-7.05-.43-2.51-.42-5.02.02-7.48.21-1.19.53-2.36.95-3.49.41-1.12.92-2.21,1.52-3.23.6-1.03,1.3-2,2.06-2.89.78-.9,1.65-1.73,2.58-2.46,1.96-1.53,4.17-2.62,6.58-3.22m-.22-1.27c-10.19,2.58-16.38,13.35-14.52,24.22,1.86,10.87,11.29,18.96,21.76,18,11.34-1.04,19.51-12.14,17.36-24.71-2.16-12.57-13.55-20.32-24.59-17.52h0Z"/>
        <path class="cls-16" d="m169.31,225.51c1.13,6.57,5.49,11.83,11.04,13.99l-10.95-20.99c-.45,2.23-.5,4.6-.09,7Zm26.54-5.5c-.39-2.27-1.44-3.69-2.31-4.78-1.13-1.33-2.17-2.43-2.43-3.93-.29-1.67.64-3.48,2.35-3.86.08-.02.15-.02.23-.04-3.58-2.28-7.87-3.13-12.11-2.11-5.48,1.32-9.6,5.46-11.45,10.61.35-.06.67-.12.95-.18,1.55-.32,3.94-1.05,3.94-1.05.81-.23,1.14,1.11.34,1.39,0,0-.8.28-1.7.51l8.8,17.64,1.54-11.98-3.76-6.99c-.86.12-1.67.17-1.67.17-.85.12-.99-1.32-.15-1.45,0,0,2.63-.32,4.2-.65,1.69-.35,4.31-1.14,4.31-1.14.89-.24,1.24,1.15.36,1.45,0,0-.88.3-1.86.55l9.4,18.27.78-6.2c.36-2.74.51-4.67.24-6.24Zm-10.7,4.37l-2.21,15.87c1.51.31,3.07.4,4.67.23,1.92-.2,3.73-.76,5.38-1.6-.06-.07-.11-.15-.16-.23l-7.68-14.27Zm12.95-12.98c.18.58.33,1.2.45,1.89.32,1.89.34,4.07-.23,6.89l-2.62,16.95c4.72-3.8,7.34-10.29,6.16-17.2-.56-3.26-1.89-6.16-3.76-8.53Z"/>
      </g>
      <path class="cls-17" d="m278.51,582c-3.8-23.32-32.65-79.14-65.42-61.71-26.07,17.6-21.83,51.98-17.9,77.82,2.97,27.27-27.77,73.75,45.55,65.22,13.58-1.58,24.99-8.47,30.63-20.65,7.82-20.49,12.06-35.94,7.14-60.69Z"/>
      <path class="cls-17" d="m427.02,319.37c-15.52,0-40.93-5.9-73.85-33.96l-1.11-.94c-4.6-3.83-8.38-7.88-10.34-11.08-1.52-2.48-1.64-5.64-.33-8.23,1.32-2.59,3.93-4.35,6.83-4.6,1.32-.11,3.04-.09,4.75.04,15.46,1.25,40.65,1.4,58.25,1.4,9.6,0,19.03-.05,28.15-.09,7.92-.04,15.37-.08,21.92-.08,12.9,0,20.46.16,23.79.49,4.33.44,7.6,4.05,7.6,8.41,0,2.27-.57,6.1-3.26,11.46-6.04,12.01-21.16,27.45-45.49,34.75-5.38,1.61-11.07,2.43-16.93,2.43Zm-76.84-50.88c-.61,0-1.03.02-1.28.05-.16.01-.29.11-.36.24-.07.14-.06.3.02.44,1.47,2.41,4.79,5.9,8.66,9.13l1.14.97c31.07,26.49,54.49,32.05,68.67,32.06,5.08,0,10-.7,14.63-2.09,21.89-6.57,35.35-20.16,40.64-30.68,2.17-4.32,2.4-6.94,2.4-7.87,0-.23-.17-.42-.4-.45-2.97-.3-10.71-.45-22.99-.45-6.54,0-13.97.04-21.88.08-9.13.05-18.57.09-28.19.09-17.74,0-43.14-.15-58.89-1.42-.74-.06-1.47-.09-2.16-.09Z"/>
      <path class="cls-23" d="m166.14,261.97c-5.44.32-8.88.27-10.61.2-.84-.04-1.6.45-1.92,1.23-5.77,13.59-9.02,29.15,38.36,24.28,1.36-.14-34.27-7.15-24.9-24.2.38-.7-.13-1.55-.93-1.5Z"/>
      <path class="cls-17" d="m65.81,648.59c-10,0-18.43-6.79-22.11-13.36l-7.91-14.11c-1.08-1.93-.39-4.37,1.53-5.45l37.52-21.04c.55-.31,1.13-.47,1.72-.5.51-.14,1.04-.23,1.57-.25l11.03-.37c2.42-.1,4.73,1.18,5.95,3.35l7.14,12.73h0c6.4,11.42,2.92,23.07-8.87,29.68-.18.1-.36.18-.55.26-5.62,2.11-14.71,5.6-16.69,6.58-3.54,1.74-7.02,2.49-10.33,2.49Zm-21.08-27.9l5.96,10.62c3.13,5.57,11.84,12.57,21.93,7.61,2.83-1.39,14.7-5.87,17.12-6.78,7.69-4.43,9.71-11.21,5.54-18.64l-6.71-11.97-9.81.33c-.37.19-.75.32-1.14.39l-32.89,18.44Zm34.34-19h0s0,0,0,0Zm10.41-.19h-.03s.02,0,.03,0Z"/>
      <g>
        <path class="cls-24" d="m51.63,635.28c5.57,9.66,16.78,13.84,25.04,9.33l7.61-4.15c8.26-4.5,10.44-15.98,4.87-25.64l-8.36-14.5-37.52,20.45,8.36,14.5Z"/>
        <path class="cls-17" d="m69.48,650.41c-8.12,0-16.53-4.84-21.31-13.13h0l-8.36-14.5c-.54-.93-.68-2.04-.39-3.08.29-1.04.99-1.91,1.94-2.43l37.52-20.45c1.91-1.04,4.29-.37,5.38,1.51l8.36,14.5c3.51,6.09,4.53,13.14,2.78,19.35-1.45,5.17-4.72,9.36-9.2,11.8l-7.61,4.15c-2.84,1.55-5.95,2.28-9.11,2.28Zm-14.38-17.12c4.49,7.78,13.31,11.28,19.66,7.82l7.61-4.15c3.3-1.8,4.72-4.77,5.33-6.94,1.17-4.14.43-8.95-2.01-13.19l-6.41-11.12-30.49,16.62,6.31,10.95Z"/>
      </g>
      <g>
        <path class="cls-24" d="m201.19,513.86s-19.7,19.51-18.36,55.44c.94,25.21,15.19,7.23,11.49,54.42-1.7,21.66,11.48,34.38,41.13,34.9,9.28.16,15.45-22.74,20.25-62.16.51-4.19,2.12-12.59,0-30.5-4.28-36.25-29.2-72.42-54.51-52.1Z"/>
        <path class="cls-17" d="m235.57,662.63c-.06,0-.13,0-.19,0-17.26-.3-29.81-4.64-37.3-12.88-5.99-6.59-8.6-15.45-7.74-26.33,2.07-26.44-1.5-30.78-4.96-34.97-2.86-3.47-6.11-7.41-6.54-18.99-1.39-37.26,18.69-57.58,19.54-58.43.1-.1.2-.19.31-.28,8.56-6.87,17.89-8.54,26.99-4.82,18.6,7.61,31.18,35.72,34,59.56,1.97,16.69.8,25.46.17,30.17-.06.47-.12.9-.17,1.29-5.75,47.21-12.51,65.68-24.09,65.68Zm-31.69-145.8c-1.63,1.73-18.25,20.22-17.06,52.32.33,8.88,2.27,11.22,4.72,14.2,5.32,6.46,8.92,13.16,6.76,40.69-.67,8.59,1.24,15.43,5.69,20.32,5.95,6.55,16.56,10,31.52,10.27h.02c1.72,0,4.81-3.51,7.89-13.42,3.08-9.94,5.8-24.73,8.29-45.22.05-.42.11-.88.18-1.38.58-4.36,1.67-12.48-.18-28.17-2.92-24.68-15.42-47.51-29.08-53.1-6.27-2.56-12.58-1.39-18.76,3.5Z"/>
      </g>
      <path class="cls-17" d="m253.32,579.96c-.66-.48-1.51-.62-2.29-.38-27.68,8.73-66.09-3.38-66.48-3.5-.98-.31-2.06-.01-2.73.77-.67.78-.81,1.89-.35,2.82l6.27,12.6c.27.54.72.97,1.27,1.21.92.4,16.46,7.03,36.4,7.03,8.55,0,17.91-1.22,27.27-4.67,1.01-.37,1.68-1.33,1.68-2.41v-11.4c0-.82-.39-1.59-1.05-2.07Z"/>
      <path class="cls-17" d="m255.47,617.06c-.09-.87-.61-1.64-1.38-2.03s-1.7-.38-2.46.06l-10.16,5.89-39.35-2.25h0c-.68-.04-1.35.19-1.85.65-.51.45-.82,1.09-.85,1.77l-.75,13.44c-.72,12.86,8.37,23.37,21.17,24.09l10.26.57c.07,0,.13,0,.2,0,6.55-.14,11.99-2.6,16.16-7.29,11.52-12.99,9.14-33.8,9.03-34.89Z"/>
      <path class="cls-17" d="m257.99,616.63c-.26-1.1-1.22-1.9-2.36-1.97l-56.21-3.13c-.5-.03-1,.09-1.43.34l-11.95,6.92c-.98.57-1.47,1.72-1.21,2.82.26,1.1,1.22,1.9,2.36,1.97l56.21,3.13c.5.03,1-.09,1.43-.34l11.95-6.92c.98-.57,1.47-1.72,1.21-2.82Z"/>
      <g>
        <path class="cls-24" d="m209.14,659.92l11.39.64c25.51,1.42,24.47-35.99,24.47-35.99l-56.18-3.13s-2.08,37.24,20.32,38.49Z"/>
        <path class="cls-17" d="m221.95,664.6c-.54,0-1.09-.02-1.64-.05l-11.39-.63h0c-7.74-.43-17.88-4.73-22.22-22.77-2.39-9.92-1.89-19.53-1.87-19.94.12-2.21,2-3.88,4.22-3.77l56.18,3.13c2.08.12,3.72,1.8,3.78,3.88.03.92.5,22.68-10.91,33.77-4.35,4.23-9.78,6.38-16.14,6.38Zm-12.59-8.67l11.39.63c4.81.27,8.66-1.06,11.76-4.08,6.08-5.92,8-17.33,8.41-24.15l-48.12-2.68c.22,8.88,2.28,29.47,16.56,30.27h0Z"/>
      </g>
      <g>
        <path class="cls-2" d="m25.56,373.62l-4.86-2.22c-2.26-1.03-3.26-3.7-2.23-5.96l24.69-54.16,13.05,5.95-24.69,54.16c-1.03,2.26-3.7,3.26-5.96,2.23Z"/>
        <g class="cls-31">
          <rect class="cls-20" x="38.73" y="270.74" width="35.12" height="59.52" rx="14.7" ry="14.7" transform="translate(129.73 3.73) rotate(24.51)"/>
        </g>
        <g>
          <path class="cls-17" d="m31.54,378.38c-1.51,0-3.02-.29-4.47-.87l-4.96-1.99c-6.14-2.47-9.13-9.47-6.67-15.6l22.02-55.08c-4.3-6.06-5.35-13.96-2.49-21.09l11.21-27.95c4.56-11.36,17.51-16.9,28.87-12.34l5.3,2.13c5.49,2.2,9.8,6.42,12.13,11.89,2.33,5.46,2.41,11.5.2,16.99l-11.21,27.95c-2.9,7.23-9.42,12.3-16.89,13.59l-21.92,54.82c-1.2,2.98-3.48,5.31-6.42,6.57-1.51.65-3.11.97-4.71.97Zm35.26-121.51c-2.86,0-5.57,1.71-6.69,4.52l-11.21,27.95c-1.14,2.84-.28,6.22,2.08,8.21,1.92,1.61,2.87,4.03,2.65,6.44,1.56-1.89,3.99-2.94,6.52-2.69,3.18.31,6.23-1.52,7.41-4.47l11.21-27.95c.71-1.77.68-3.72-.08-5.5-.76-1.78-2.15-3.15-3.92-3.86,0,0,0,0,0,0l-5.3-2.13c-.88-.35-1.78-.52-2.67-.52Z"/>
          <path class="cls-2" d="m29.86,370.55l-4.96-1.99c-2.31-.92-3.42-3.54-2.5-5.85l25.81-64.55,13.31,5.34-25.81,64.55c-.92,2.31-3.54,3.42-5.85,2.5Z"/>
          <g class="cls-33">
            <rect class="cls-20" x="43.27" y="257.01" width="35.12" height="59.52" rx="14.7" ry="14.7" transform="translate(111.16 -2.03) rotate(21.86)"/>
          </g>
          <rect class="cls-10" x="46.28" y="249.35" width="35.12" height="59.52" rx="14.7" ry="14.7" transform="translate(108.53 -3.7) rotate(21.86)"/>
        </g>
      </g>
      <path class="cls-5" d="m56.76,345.13s-5.88-7.63-13.51-7.3c-4.41.19-13.41,6.38-6.09,17.43,2.14,3.23,10.73,7.06,10.73,7.06,0,0,4.07,1.4,9.03-4.18,5.92-6.66-.17-13.01-.17-13.01Z"/>
      <path class="cls-17" d="m48.5,367.83c-.46,0-.93-.08-1.39-.25-6.43-2.38-16.9-9.13-15.39-19.33,1.05-7.07,4.68-10.08,7.55-11.36,9.18-4.09,22.2,4.22,23.65,5.18,1.84,1.22,2.35,3.7,1.13,5.54-1.22,1.84-3.7,2.35-5.54,1.13-3.46-2.27-11.9-6.37-15.98-4.55-.56.25-2.26,1.01-2.89,5.22-.92,6.22,10.14,10.61,10.25,10.65,2.07.77,3.13,3.07,2.36,5.14-.6,1.61-2.13,2.61-3.75,2.61Z"/>
      <g>
        <path class="cls-5" d="m288.73,471.28c-15.66-4.75-22.41-15.66-23.24-21.04-1.2-7.75,3.93-16.44,13.06-22.14.82-.51,1.74-1.01,2.74-1.49,6.36-3.06,15.52-5.12,25.23-7.3,11.84-2.66,30.6-10.72,39.42,17.5,14.09,45.07-36.99,40.62-57.2,34.48Z"/>
        <path class="cls-30" d="m336.11,459.74c-12.29,4.87-27.07,6.08-47.28-.06-12.02-3.65-18.78-9.91-21.66-15.53-1.6,3.33-2.2,2.79-1.69,6.08.83,5.38,7.58,16.28,23.24,21.04,20.21,6.14,34.99,4.92,47.28.06,26.71-10.58,57.75-13.08,48.85-37.75-6.81,13.6-33.61,20.16-48.74,26.15Z"/>
        <path class="cls-17" d="m315.78,478.95c-9.46,0-19.35-1.15-28.21-3.84-17.16-5.21-24.97-17.36-26.03-24.25-1.44-9.33,4.4-19.59,14.89-26.14.94-.59,1.99-1.16,3.12-1.7,6.77-3.26,16.15-5.37,26.08-7.6,1.78-.4,3.77-1.05,5.88-1.74,11.07-3.61,27.8-9.08,40.4,16.06,10.09,20.13,12.84,29.29,10.51,35.01-1.75,4.3-5.71,5.67-9.54,6.99-1.39.48-2.82.98-4.27,1.63h0c-7.49,3.39-19.74,5.6-32.84,5.6Zm10.79-60.45c-4.09,0-8.29,1.37-12.58,2.77-2.29.75-4.46,1.46-6.6,1.94-9.48,2.13-18.42,4.14-24.37,7-.86.42-1.66.85-2.36,1.28-7.65,4.78-12.16,12.07-11.22,18.14.61,3.98,6.42,13.56,20.45,17.82,18.74,5.69,43.79,3.88,55.42-1.39h0c1.78-.81,3.47-1.39,4.95-1.9,2.7-.93,4.38-1.55,4.74-2.45,1.18-2.91-2.27-12.47-10.25-28.41-5.78-11.53-11.86-14.81-18.19-14.81Zm20.4,51.21h0,0Z"/>
        <path class="cls-21" d="m403.74,442.7c-17.58,21.06-82.61,34.23-82.61,34.23l-19.68-59s49.49-10.02,54.33-18.89c5.9-10.8-1.54-21.84,6.73-29.78,44.68-42.91,55.84,13.75,63.85,17.99,0,0-5.94,35.48-22.61,55.46Z"/>
        <path class="cls-17" d="m311.79,483.46c-.8,0-1.59-.24-2.26-.7-.91-.62-1.52-1.59-1.69-2.68l-10.34-65.76c-.34-2.14,1.09-4.16,3.22-4.55.35-.07,35.53-6.72,51.24-16.59,2.4-1.59,5.39-14.67,6.28-27.45.15-2.2,2.05-3.87,4.27-3.71,2.2.15,3.87,2.06,3.71,4.27-.6,8.61-2.77,29.12-10.01,33.67-13.94,8.76-40.33,14.85-50.22,16.91l9.08,57.73c16.07-3.84,74.16-18.82,88.64-37.82,9.42-12.37,18.66-50.09,18.76-50.47.52-2.15,2.68-3.46,4.83-2.94s3.46,2.68,2.94,4.83c-.39,1.62-9.73,39.74-20.17,53.43-18.54,24.33-94.22,41.04-97.43,41.74-.28.06-.57.09-.85.09Z"/>
        <g>
          <rect class="cls-21" x="294.55" y="407.09" width="61.48" height="74.2" transform="translate(-116.16 115.19) rotate(-17.09)"/>
          <rect class="cls-4" x="314.53" y="407.09" width="21.52" height="74.2" transform="translate(-116.16 115.19) rotate(-17.09)"/>
          <path class="cls-17" d="m306.81,492.69c-.65,0-1.29-.16-1.87-.46-.94-.5-1.64-1.35-1.95-2.36l-21.8-70.93c-.65-2.11.54-4.35,2.65-5l58.77-18.07c2.12-.65,4.35.54,5,2.65l21.8,70.93c.31,1.01.21,2.11-.29,3.05-.5.94-1.35,1.64-2.36,1.95l-58.77,18.07c-.38.12-.78.18-1.18.18Zm-16.8-72.28l19.45,63.28,51.12-15.72-19.45-63.28-51.12,15.72Z"/>
        </g>
      </g>
      <g>
        <g>
          <path class="cls-19" d="m421.11,356.55c-.9-2.38-2.91-4.02-5.21-4.56,1.36-1.94,1.77-4.49.87-6.87-1.45-3.81-5.7-5.72-9.51-4.28,0,0-3.78.6-5.72,5.7l-20.11,2.47-3.23,1.23-16.68,11.5c-4.84-2.53-8.06-.46-8.06-.46-3.81,1.45-5.72,5.7-4.28,9.51.9,2.38,2.91,4.02,5.21,4.56-1.36,1.94-1.77,4.49-.87,6.87.9,2.38,2.91,4.02,5.21,4.56-1.36,1.94-1.77,4.49-.87,6.87.9,2.38,2.91,4.02,5.21,4.56-1.36,1.94-1.77,4.49-.87,6.87,1.41,3.72,5.52,5.63,9.26,4.36.08.47.2.94.38,1.4,1.45,3.81,5.7,5.72,9.51,4.28,1.22-.46,2.25-1.22,3.03-2.16.02.07.04.14.07.21,1.45,3.81,5.7,5.72,9.51,4.28,1.45-.55,2.62-1.52,3.44-2.7,1.6,1.45,3.79,2.13,5.98,1.82h0s0,0,0,0c.25-.04.5-.08.75-.14.28-.06.55-.14.83-.25h0s.07-.03.1-.05c.04-.01.07-.02.11-.03h0c.27-.1.53-.23.78-.36.23-.12.44-.25.65-.39,0,0,0,0,0,0h0c1.85-1.22,3.03-3.19,3.27-5.33,1.4.34,2.91.29,4.36-.26,3.81-1.45,5.72-5.7,4.28-9.51-.03-.07-.06-.14-.09-.21,1.21.18,2.48.07,3.7-.4,3.81-1.45,5.72-5.7,4.28-9.51-.18-.46-.39-.89-.65-1.3,3.64-1.53,5.45-5.68,4.03-9.4-.9-2.38-2.91-4.02-5.21-4.56,1.36-1.94,1.77-4.49.87-6.87s-2.91-4.02-5.21-4.56c1.36-1.94,1.77-4.49.87-6.87Z"/>
          <path class="cls-12" d="m391.36,418.93c-2.97,0-5.79-1.59-7.3-4.25-.7.58-1.5,1.04-2.35,1.37-2.09.79-4.37.73-6.41-.19-2.04-.92-3.6-2.57-4.39-4.67-.07-.17-.12-.34-.18-.52-3.97.81-7.99-1.35-9.46-5.24-.83-2.19-.7-4.59.31-6.66-2.13-.87-3.82-2.59-4.65-4.78-.83-2.19-.7-4.59.31-6.66-2.13-.87-3.82-2.59-4.65-4.77-.83-2.19-.7-4.6.31-6.66-2.13-.87-3.82-2.59-4.65-4.77-1.63-4.29.51-9.1,4.77-10.77.62-.35,3.84-1.94,8.42.21l16.19-11.17c.07-.05.14-.08.21-.11l3.23-1.23c.07-.03.15-.05.23-.06l19.52-2.4c2-4.64,5.46-5.6,6.16-5.74,2.07-.76,4.31-.68,6.32.22,2.04.92,3.6,2.57,4.39,4.66.83,2.19.7,4.59-.31,6.66,2.13.87,3.82,2.59,4.65,4.78.83,2.19.7,4.59-.31,6.66,2.13.87,3.82,2.59,4.65,4.78.83,2.19.7,4.59-.31,6.66,2.13.87,3.82,2.59,4.65,4.78,1.48,3.89-.1,8.16-3.6,10.19.08.17.15.34.21.51,1.64,4.32-.54,9.16-4.85,10.8-.85.32-1.76.5-2.67.54.85,3.97-1.3,8.09-5.22,9.58-1.25.48-2.58.63-3.91.48-.49,2.04-1.74,3.82-3.52,5,0,0,0,0,0,0h0c-.24.16-.48.31-.74.45-.28.15-.58.29-.89.41-.02,0-.07.02-.1.03-.04.02-.08.04-.12.05-.3.12-.62.21-.94.28-.27.07-.55.12-.84.16-2.12.3-4.24-.21-5.96-1.4-.89,1-1.99,1.76-3.25,2.23-.98.37-1.98.55-2.96.55Zm-6.97-6.97c.06,0,.12,0,.18.02.35.07.65.32.76.66,0,.01.04.11.04.12,1.27,3.34,4.95,5,8.24,3.75,1.2-.46,2.23-1.26,2.97-2.34.16-.24.42-.39.71-.43.29-.03.57.06.79.25,1.4,1.27,3.28,1.84,5.17,1.57.22-.03.43-.07.65-.12.25-.06.48-.13.71-.21,0,0,.04-.02.08-.04.04-.02.13-.04.17-.05.2-.08.42-.18.63-.29.21-.11.39-.23.58-.35,0,0,0,0,0,0,1.59-1.05,2.62-2.73,2.82-4.61.03-.29.19-.54.42-.71.24-.16.53-.22.81-.15,1.26.31,2.57.24,3.77-.22,3.28-1.25,4.94-4.94,3.7-8.22,0,0-.07-.16-.08-.17-.14-.33-.09-.72.13-1,.22-.29.57-.43.94-.38,1.08.16,2.18.04,3.2-.34,3.28-1.25,4.94-4.94,3.7-8.22-.15-.38-.33-.76-.56-1.12-.16-.25-.19-.55-.1-.83s.29-.51.57-.62c3.18-1.34,4.71-4.91,3.49-8.13-.75-1.98-2.44-3.46-4.51-3.95-.32-.08-.59-.31-.71-.62-.12-.31-.07-.66.12-.93,1.22-1.74,1.5-3.96.75-5.94-.75-1.98-2.44-3.46-4.51-3.94-.32-.08-.59-.31-.71-.62-.12-.31-.07-.66.12-.93,1.22-1.74,1.51-3.96.75-5.94h0c-.75-1.98-2.44-3.46-4.51-3.94-.32-.08-.59-.31-.71-.62-.12-.31-.07-.66.12-.93,1.22-1.74,1.51-3.96.75-5.94-.6-1.59-1.79-2.85-3.35-3.55-1.55-.7-3.29-.75-4.88-.14-.06.02-.13.04-.2.05-.12.02-3.25.62-4.94,5.07-.13.35-.44.59-.81.64l-19.99,2.45-3.01,1.14-16.58,11.43c-.3.21-.7.24-1.03.06-4.21-2.2-6.95-.57-7.07-.5-.05.03-.12.07-.18.09-3.28,1.25-4.94,4.94-3.7,8.22.75,1.98,2.44,3.46,4.51,3.94.32.08.59.31.71.62.12.31.07.66-.12.93-1.22,1.74-1.51,3.96-.75,5.94.75,1.98,2.44,3.46,4.51,3.94.32.08.59.31.71.62.12.31.07.66-.12.93-1.22,1.74-1.51,3.96-.75,5.94.75,1.98,2.44,3.46,4.51,3.94.32.08.59.31.71.62.12.31.07.66-.12.93-1.22,1.74-1.51,3.96-.75,5.94,1.22,3.22,4.73,4.88,8,3.77.28-.09.58-.06.83.09.25.15.42.4.47.69.07.42.18.83.33,1.21.6,1.59,1.79,2.85,3.35,3.55,1.55.7,3.28.75,4.88.15,1.02-.39,1.92-1.03,2.62-1.86.19-.23.47-.36.77-.36Z"/>
        </g>
        <path class="cls-5" d="m423.74,350.93c-.9-2.38-2.9-4.03-5.2-4.57,1.37-1.93,1.78-4.49.89-6.87-1.44-3.81-5.69-5.73-9.5-4.3,0,0-3.79.59-5.74,5.69l-20.11,2.42-3.24,1.22-16.7,11.46c-4.83-2.54-8.06-.48-8.06-.48-3.81,1.44-5.73,5.69-4.3,9.5.9,2.38,2.9,4.03,5.2,4.57-1.37,1.93-1.78,4.49-.89,6.87s2.9,4.03,5.2,4.57c-1.37,1.93-1.78,4.49-.89,6.87.9,2.38,2.9,4.03,5.2,4.57-1.37,1.93-1.78,4.49-.89,6.87,1.41,3.73,5.5,5.64,9.25,4.38.08.47.2.94.38,1.4,1.44,3.81,5.69,5.73,9.5,4.3,1.22-.46,2.25-1.22,3.04-2.15.02.07.04.14.07.21,1.44,3.81,5.69,5.73,9.5,4.3,1.45-.55,2.62-1.51,3.44-2.7,1.6,1.45,3.79,2.14,5.98,1.83h0s0,0,0,0c.25-.04.5-.08.75-.14.28-.06.55-.14.83-.25h0s.07-.03.1-.05c.04-.01.07-.02.11-.03h0c.27-.1.53-.23.78-.36.23-.12.44-.25.66-.39,0,0,0,0,0,0h0c1.85-1.22,3.04-3.18,3.28-5.32,1.4.35,2.91.3,4.37-.25,3.81-1.44,5.73-5.69,4.3-9.5-.03-.07-.06-.14-.09-.21,1.21.18,2.48.07,3.7-.39,3.81-1.44,5.73-5.69,4.3-9.5-.17-.46-.39-.9-.64-1.3,3.65-1.52,5.46-5.67,4.06-9.4-.9-2.38-2.9-4.03-5.2-4.57,1.37-1.93,1.78-4.49.89-6.87-.9-2.38-2.9-4.03-5.2-4.57,1.37-1.93,1.78-4.49.89-6.87Z"/>
        <path class="cls-9" d="m423.74,350.93c-.9-2.38-2.9-4.03-5.2-4.57,1.37-1.93,1.78-4.49.89-6.87-1.44-3.81-5.69-5.73-9.5-4.3,0,0-3.79.59-5.74,5.69l-20.11,2.42-3.24,1.22-16.7,11.46c-4.83-2.54-8.06-.48-8.06-.48-3.81,1.44-5.73,5.69-4.3,9.5.9,2.38,2.9,4.03,5.2,4.57-1.37,1.93-1.78,4.49-.89,6.87s2.9,4.03,5.2,4.57c-1.37,1.93-1.78,4.49-.89,6.87.9,2.38,2.9,4.03,5.2,4.57-1.37,1.93-1.78,4.49-.89,6.87,1.41,3.73,5.5,5.64,9.25,4.38.08.47.2.94.38,1.4,1.44,3.81,5.69,5.73,9.5,4.3,1.22-.46,2.25-1.22,3.04-2.15.02.07.04.14.07.21,1.44,3.81,5.69,5.73,9.5,4.3,1.45-.55,2.62-1.51,3.44-2.7,1.6,1.45,3.79,2.14,5.98,1.83h0s0,0,0,0c.25-.04.5-.08.75-.14.28-.06.55-.14.83-.25h0s.07-.03.1-.05c.04-.01.07-.02.11-.03h0c.27-.1.53-.23.78-.36.23-.12.44-.25.66-.39,0,0,0,0,0,0h0c1.85-1.22,3.04-3.18,3.28-5.32,1.4.35,2.91.3,4.37-.25,3.81-1.44,5.73-5.69,4.3-9.5-.03-.07-.06-.14-.09-.21,1.21.18,2.48.07,3.7-.39,3.81-1.44,5.73-5.69,4.3-9.5-.17-.46-.39-.9-.64-1.3,3.65-1.52,5.46-5.67,4.06-9.4-.9-2.38-2.9-4.03-5.2-4.57,1.37-1.93,1.78-4.49.89-6.87-.9-2.38-2.9-4.03-5.2-4.57,1.37-1.93,1.78-4.49.89-6.87Z"/>
        <g>
          <path class="cls-21" d="m399.83,399.08c-9.59,3.62-20.34-1.24-23.96-10.84l-11.79-31.26s4.26-5.88,19.1-11.48c14.84-5.6,21.92-3.99,21.92-3.99l11.79,31.26c3.62,9.59-1.24,20.34-10.84,23.96l-6.23,2.35Z"/>
          <path class="cls-27" d="m393.3,403.28c-8.73,0-16.97-5.33-20.23-13.98l-11.79-31.26c-.36-.94-.21-2,.38-2.82.49-.68,5.22-6.78,20.47-12.53,15.25-5.75,22.83-4.3,23.65-4.11.98.22,1.79.92,2.14,1.87l11.79,31.26c2.03,5.39,1.84,11.25-.54,16.52-2.38,5.26-6.66,9.28-12.05,11.31l-6.23,2.35c-2.5.94-5.07,1.39-7.6,1.39Zm-25.75-45.61l11.13,29.52c3.04,8.05,12.05,12.12,20.09,9.09h0l6.23-2.35c8.05-3.04,12.12-12.05,9.09-20.1l-11.13-29.52c-2.65-.09-8.84.27-18.72,4-9.86,3.72-14.75,7.53-16.69,9.36Z"/>
        </g>
        <path class="cls-27" d="m428.82,382.98c.19-.03.38-.07.56-.11-.04-.04-.09-.08-.13-.13-.14.08-.28.16-.43.24Z"/>
        <path class="cls-27" d="m365.11,363.01c.38-.73.1-1.64-.64-2.02-.73-.38-1.64-.1-2.02.64-.02.03-1.68,3.16-4.65,4.66-2.77,1.39-4.72.84-4.79.82,1.03,1.24,2.43,2.11,3.97,2.47-.06.09-.12.19-.18.28.72-.2,1.51-.48,2.34-.9,3.83-1.92,5.88-5.79,5.96-5.95Z"/>
        <path class="cls-27" d="m369.72,374.46c.35-.75.03-1.64-.71-1.99-.75-.36-1.64-.04-2,.71-.01.03-1.48,3.05-4.38,4.6-2.74,1.46-4.7.95-4.76.94-.15-.05-.3-.06-.45-.06,1.02,1.19,2.39,2.02,3.89,2.37-.13.18-.23.36-.34.55.92-.2,1.96-.55,3.08-1.15,3.79-2.02,5.6-5.8,5.68-5.96Z"/>
        <path class="cls-27" d="m374.16,385.6c.35-.75.03-1.63-.71-1.99-.74-.36-1.64-.04-2,.7-.01.03-1.28,2.57-4.58,4.35-2.76,1.49-4.72,1.04-4.79,1.02-.24-.06-.47-.06-.7-.01,1.02,1.37,2.47,2.33,4.08,2.75.85-.22,1.8-.57,2.82-1.12,4.21-2.27,5.8-5.56,5.86-5.7Z"/>
        <path class="cls-27" d="m415.19,344.64c-3.04.79-4.87,0-4.97-.05-.74-.35-1.63-.05-1.99.69-.37.74-.06,1.64.69,2.01.2.1,1.51.7,3.68.7.96,0,2.09-.12,3.36-.45,1.07-.28,2.02-.67,2.84-1.1-.08-.02-.16-.06-.25-.08.9-1.27,1.37-2.8,1.35-4.38-.65.64-2.28,2.02-4.7,2.66Z"/>
        <path class="cls-27" d="m414.13,355.71c-.73-.37-1.63-.08-2.01.64-.38.74-.1,1.64.64,2.02.2.11,1.61.79,3.95.79.9,0,1.93-.1,3.08-.37,1.13-.27,2.17-.62,3.09-.99,0,0-.01,0-.02,0,.82-1.16,1.29-2.53,1.35-3.97-1.02.58-2.87,1.52-5.1,2.04-3.06.72-4.87-.12-4.97-.17Z"/>
        <path class="cls-27" d="m418.15,366.43c-.73-.37-1.63-.08-2,.65-.38.73-.1,1.64.64,2.02.2.1,1.8.89,4.92.89.48,0,1-.02,1.56-.06,1.43-.11,2.79-.42,3.97-.77.74-1.08,1.17-2.34,1.27-3.65-1.23.53-3.29,1.26-5.47,1.43-3.22.25-4.81-.47-4.88-.5Z"/>
        <path class="cls-27" d="m379.04,395.82c.17-.81-.34-1.6-1.14-1.78-.81-.18-1.61.33-1.79,1.14,0,.03-.72,3.12-3.12,5.26-2.27,2.03-4.39,2.06-4.51,2.06h0c-.38-.02-.72.11-.98.32,1.7,1.15,3.85,1.57,5.93,1.04.51-.33,1.04-.71,1.56-1.18,3.15-2.82,4.01-6.7,4.05-6.86Z"/>
        <path class="cls-27" d="m388.53,399.6c-.28-.77-1.13-1.17-1.9-.89-.78.27-1.19,1.12-.93,1.9.02.07.57,1.78-.54,4.23-1.14,2.55-4.44,4.12-4.47,4.13-.36.17-.61.45-.75.79,1.27.23,2.62.14,3.92-.35,1.22-.46,2.25-1.22,3.04-2.15.02.07.04.14.07.21.01.04.03.07.05.11.34-.47.65-.97.89-1.52,1.6-3.56.73-6.18.63-6.47Z"/>
        <path class="cls-27" d="m415.2,390.33c-.81-.1-1.53.46-1.65,1.26s.43,1.56,1.23,1.71c.01,0,1.4.28,3.3,2.24,1.9,1.97,2.46,4.15,2.62,5.06.93-1.79,1.13-3.95.36-5.99-.03-.07-.06-.14-.09-.21.04,0,.07,0,.11,0-.26-.32-.53-.65-.84-.96-2.66-2.75-4.8-3.1-5.04-3.13Z"/>
        <path class="cls-27" d="m421.97,380.76c.24-.79,1.07-1.25,1.86-1.01,0,0,.06.02.16.04-2.45-.69-4.12-.33-4.35-.28-.8.19-1.28.99-1.1,1.79s.98,1.31,1.79,1.13c.06-.01,1.17-.24,2.9.26-.13-.03-.22-.06-.24-.06-.79-.24-1.25-1.07-1.01-1.86Z"/>
        <path class="cls-27" d="m428.96,384.52c-.17-.46-.39-.9-.64-1.3.17-.07.34-.16.5-.24-.67.12-1.33.18-1.96.18-1.67,0-3.08-.32-3.63-.46.58.17,1.22.41,1.92.77,2.73,1.42,3.41,3.31,3.43,3.37.13.43.45.74.83.91.09-1.07-.04-2.17-.44-3.23Z"/>
        <path class="cls-5" d="m423.23,382.69s0,0,0,0c0,0,0,0,0,0Z"/>
        <path class="cls-27" d="m429.22,379.79c-1.98.75-4.57.17-5.23,0,.77.22,1.63.54,2.53,1.01,1.15.59,2.03,1.27,2.72,1.94,2.06-1.23,3.36-3.36,3.57-5.67-.36.51-1.51,1.93-3.6,2.72Z"/>
        <path class="cls-27" d="m423.99,379.79c-.1-.02-.15-.04-.16-.04-.79-.24-1.63.22-1.86,1.01-.24.79.22,1.63,1.01,1.86.02,0,.11.03.24.06,0,0,0,0,0,0,.55.14,1.96.46,3.63.46.63,0,1.3-.06,1.96-.18.15-.07.29-.16.43-.24-.69-.66-1.58-1.34-2.72-1.94-.91-.47-1.76-.79-2.53-1.01Z"/>
        <path class="cls-27" d="m399.2,400.38c-.51-.64-1.44-.74-2.08-.24-.65.5-.77,1.44-.27,2.1.04.06,1.09,1.48.88,4.18-.22,2.85-2.43,5.49-2.45,5.52-.05.06-.09.12-.13.19.44-.08.88-.19,1.31-.36,1.45-.55,2.62-1.51,3.44-2.7.08.07.17.13.25.2.28-.82.5-1.7.57-2.62.3-3.88-1.33-6.03-1.52-6.27Z"/>
        <path class="cls-27" d="m407.26,397.25c-.7-.44-1.61-.23-2.06.47-.44.7-.24,1.62.45,2.07.02.01,1.67,1.1,3.18,3.64,1.21,2.04,1.39,4.49,1.41,5.34,1.19-1.18,1.96-2.73,2.15-4.4.04.01.09.01.13.02-.26-.82-.62-1.67-1.1-2.49-1.9-3.21-4.06-4.59-4.16-4.65Z"/>
      </g>
    </g>
  </g>
</svg>